<svg xmlns="http://www.w3.org/2000/svg" xmlns:xlink="http://www.w3.org/1999/xlink" width="500" zoomAndPan="magnify" viewBox="0 0 375 374.999991" height="500" preserveAspectRatio="xMidYMid meet" version="1.0"><defs><g/><clipPath id="9afb9fe6b8"><path d="M 105.324219 82 L 269.574219 82 L 269.574219 237.648438 L 105.324219 237.648438 Z M 105.324219 82 " clip-rule="nonzero"/></clipPath></defs><rect x="-37.5" width="450" fill="#ffffff" y="-37.499999" height="449.999989" fill-opacity="1"/><rect x="-37.5" width="450" fill="#ffffff" y="-37.499999" height="449.999989" fill-opacity="1"/><path fill="#000000" d="M 182.292969 104.292969 C 163.667969 105.191406 146.488281 115.089844 136.339844 130.765625 C 136.234375 130.929688 136.199219 131.125 136.242188 131.316406 C 136.285156 131.511719 136.398438 131.675781 136.566406 131.78125 C 136.679688 131.855469 136.8125 131.894531 136.949219 131.894531 C 137.203125 131.894531 137.433594 131.769531 137.570312 131.558594 C 147.460938 116.277344 164.207031 106.632812 182.359375 105.753906 C 182.757812 105.734375 183.070312 105.394531 183.054688 105 C 183.046875 104.800781 182.964844 104.621094 182.820312 104.488281 C 182.671875 104.351562 182.484375 104.285156 182.292969 104.296875 Z M 182.292969 104.292969 " fill-opacity="1" fill-rule="nonzero"/><path fill="#000000" d="M 226.753906 144.195312 C 229.628906 144.195312 231.96875 141.855469 231.96875 138.984375 C 231.96875 136.113281 229.628906 133.777344 226.753906 133.777344 C 223.875 133.777344 221.535156 136.113281 221.535156 138.984375 C 221.535156 141.855469 223.875 144.195312 226.753906 144.195312 Z M 222.769531 138.984375 C 222.769531 136.792969 224.554688 135.007812 226.753906 135.007812 C 228.949219 135.007812 230.734375 136.792969 230.734375 138.984375 C 230.734375 141.179688 228.949219 142.960938 226.753906 142.960938 C 224.554688 142.960938 222.769531 141.179688 222.769531 138.984375 Z M 222.769531 138.984375 " fill-opacity="1" fill-rule="nonzero"/><path fill="#000000" d="M 218.929688 120.683594 C 217.070312 120.683594 215.554688 122.195312 215.554688 124.054688 C 215.554688 125.914062 217.070312 127.425781 218.929688 127.425781 C 220.792969 127.425781 222.308594 125.914062 222.308594 124.054688 C 222.308594 122.195312 220.792969 120.683594 218.929688 120.683594 Z M 221.074219 124.054688 C 221.074219 125.234375 220.113281 126.195312 218.929688 126.195312 C 217.75 126.195312 216.785156 125.234375 216.785156 124.054688 C 216.785156 122.875 217.75 121.914062 218.929688 121.914062 C 220.113281 121.914062 221.074219 122.875 221.074219 124.054688 Z M 221.074219 124.054688 " fill-opacity="1" fill-rule="nonzero"/><path fill="#000000" d="M 240.554688 117.320312 C 242.671875 117.320312 244.390625 115.601562 244.390625 113.488281 C 244.390625 111.375 242.671875 109.65625 240.554688 109.65625 C 238.4375 109.65625 236.71875 111.375 236.71875 113.488281 C 236.71875 115.601562 238.4375 117.320312 240.554688 117.320312 Z M 237.949219 113.488281 C 237.949219 112.054688 239.117188 110.886719 240.554688 110.886719 C 241.992188 110.886719 243.160156 112.054688 243.160156 113.488281 C 243.160156 114.921875 241.992188 116.089844 240.554688 116.089844 C 239.117188 116.089844 237.949219 114.921875 237.949219 113.488281 Z M 237.949219 113.488281 " fill-opacity="1" fill-rule="nonzero"/><g clip-path="url(#9afb9fe6b8)"><path fill="#000000" d="M 269.277344 84.179688 C 268.996094 83.386719 268.421875 82.75 267.660156 82.390625 C 266.09375 81.648438 264.21875 82.316406 263.472656 83.878906 L 217.0625 181.261719 L 216.378906 180.914062 C 215.867188 180.65625 215.285156 180.613281 214.738281 180.792969 C 214.195312 180.972656 213.753906 181.355469 213.496094 181.863281 L 210.996094 186.8125 C 210.851562 187.09375 210.777344 187.414062 210.769531 187.730469 C 210.25 187.492188 209.667969 187.457031 209.125 187.636719 C 208.546875 187.820312 208.078125 188.222656 207.804688 188.757812 L 204.289062 195.648438 C 204.011719 196.1875 203.964844 196.800781 204.152344 197.375 C 204.304688 197.839844 204.609375 198.25 205.011719 198.527344 C 204.164062 199.777344 201.972656 203.042969 199.296875 207.1875 C 197.5 197.542969 194.238281 190.863281 192.578125 188.40625 C 192.757812 188.128906 192.851562 187.8125 192.851562 187.484375 L 192.851562 184.65625 C 192.851562 183.851562 192.285156 183.152344 191.503906 182.972656 L 191.503906 177.925781 C 191.503906 177.816406 191.59375 177.730469 191.707031 177.730469 C 192.195312 177.730469 192.671875 177.550781 193.042969 177.226562 L 193.347656 176.960938 L 197.027344 178.671875 C 197.234375 178.765625 197.414062 178.90625 197.566406 179.085938 C 201.25 183.40625 204.625 184.792969 206.308594 185.234375 C 206.675781 185.332031 207.070312 185.160156 207.246094 184.820312 C 207.425781 184.480469 207.34375 184.066406 207.050781 183.816406 C 206.539062 183.382812 201.980469 179.367188 199.199219 171.875 L 200.015625 171.167969 C 200.484375 170.757812 200.652344 170.117188 200.445312 169.535156 L 200.105469 168.570312 L 203.316406 167.453125 C 204.113281 167.175781 204.535156 166.300781 204.257812 165.503906 L 203.648438 163.757812 C 203.511719 163.375 203.234375 163.066406 202.867188 162.886719 C 202.5 162.707031 202.082031 162.683594 201.699219 162.820312 L 198.453125 163.945312 C 198.214844 163.460938 197.675781 163.171875 197.132812 163.242188 C 190.332031 164.140625 180.890625 169.507812 175.867188 172.628906 C 175.078125 173.121094 174.6875 173.992188 174.84375 174.90625 C 175 175.820312 175.660156 176.515625 176.566406 176.714844 L 179.808594 177.433594 C 180.875 177.667969 181.621094 178.59375 181.621094 179.683594 L 181.621094 182.988281 C 180.867188 183.191406 180.34375 183.871094 180.34375 184.652344 L 180.34375 187.484375 C 180.34375 187.886719 180.488281 188.28125 180.746094 188.589844 C 180.28125 189.320312 179.109375 191.289062 177.789062 194.523438 L 177.789062 187.96875 C 177.789062 185.695312 175.9375 183.84375 173.65625 183.84375 L 171.90625 183.84375 C 170.769531 183.84375 169.734375 183.125 169.332031 182.054688 C 168.546875 179.980469 166.882812 177.269531 163.410156 176.109375 L 163.410156 174.457031 C 163.410156 173.351562 162.726562 172.355469 161.707031 171.960938 C 161.769531 171.796875 161.800781 171.621094 161.800781 171.445312 L 161.800781 170.371094 C 161.800781 169.601562 161.1875 168.957031 160.421875 168.917969 L 160.421875 164.695312 C 160.421875 163.347656 159.324219 162.253906 157.976562 162.253906 L 154.441406 162.253906 C 153.09375 162.253906 151.996094 163.347656 151.996094 164.695312 L 151.996094 168.914062 L 151.90625 168.914062 C 151.101562 168.914062 150.445312 169.566406 150.445312 170.371094 L 150.445312 171.445312 C 150.445312 171.621094 150.480469 171.796875 150.542969 171.960938 C 149.519531 172.355469 148.835938 173.351562 148.835938 174.457031 L 148.835938 176.109375 C 143.042969 178.054688 142.292969 184.429688 142.285156 184.496094 L 142.28125 184.542969 L 142.28125 207.097656 C 142.03125 206.199219 141.746094 205.257812 141.429688 204.304688 L 141.453125 204.234375 L 141.382812 204.164062 C 140.566406 201.730469 139.578125 199.285156 138.441406 196.890625 C 142.761719 191.398438 142.15625 186.054688 140.882812 182.535156 C 139.488281 178.675781 137.050781 176.148438 136.945312 176.042969 L 136.261719 175.34375 L 135.925781 176.261719 C 134.453125 180.285156 133.746094 183.992188 133.820312 187.28125 C 131.632812 181.691406 130.777344 176.582031 129.363281 168.1875 L 129.21875 167.335938 C 128.972656 165.875 128.660156 164.300781 128.285156 162.65625 C 130.238281 160.128906 130.0625 154.894531 130.054688 154.675781 C 130.054688 152.4375 128.9375 149.738281 126.738281 146.648438 C 133.824219 120.519531 157.730469 102.269531 184.878906 102.269531 C 195.304688 102.269531 205.578125 104.972656 214.589844 110.085938 C 223.15625 114.945312 230.476562 121.910156 235.765625 130.222656 C 235.980469 130.5625 236.429688 130.664062 236.765625 130.453125 C 236.953125 130.339844 237.078125 130.148438 237.105469 129.929688 C 237.128906 129.761719 237.085938 129.578125 236.984375 129.417969 C 231.570312 120.914062 224.078125 113.789062 215.3125 108.816406 C 206.082031 103.578125 195.558594 100.808594 184.878906 100.808594 C 171.363281 100.808594 158.507812 105.113281 147.699219 113.261719 C 136.988281 121.332031 129.359375 132.371094 125.632812 145.183594 C 122.738281 141.527344 119.398438 138.636719 119.257812 138.515625 L 118.566406 137.921875 L 118.273438 138.78125 C 118.207031 138.96875 116.675781 143.488281 117.003906 148.75 C 117.335938 154.054688 119.421875 158.109375 123.207031 160.800781 C 123.191406 161.359375 123.183594 161.902344 123.183594 162.410156 C 123.183594 163.121094 123.199219 163.890625 123.234375 164.761719 C 122.617188 164.410156 121.972656 164.109375 121.316406 163.863281 C 117.875 162.566406 114.976562 162.988281 114.851562 163.007812 L 114.222656 163.101562 L 114.335938 163.726562 C 114.367188 163.882812 115.066406 167.621094 117.511719 171.898438 C 119.003906 174.507812 121.683594 178.160156 125.96875 180.761719 C 128.789062 189.792969 133.773438 198.203125 140.386719 205.074219 C 140.847656 206.5 141.167969 207.667969 141.355469 208.433594 C 140.160156 207.535156 138.824219 206.777344 137.390625 206.179688 C 136.074219 203.445312 134.394531 201.027344 132.398438 198.984375 C 130.933594 194.347656 128.367188 191.015625 124.769531 189.089844 L 124.488281 188.753906 C 123.5625 187.746094 121.773438 185.691406 119.164062 182.648438 C 118.65625 178.277344 117.03125 172.367188 112.179688 169 C 109.21875 166.949219 106.460938 166.824219 106.34375 166.820312 L 105.746094 166.800781 L 105.707031 167.398438 C 105.351562 173.195312 106.636719 177.546875 109.519531 180.328125 C 112.53125 183.230469 116.386719 183.546875 117.90625 183.546875 C 118.046875 183.546875 118.179688 183.542969 118.304688 183.539062 C 119.898438 185.398438 121.199219 186.898438 122.167969 188.003906 C 122.109375 187.984375 122.050781 187.96875 121.988281 187.949219 C 118.214844 186.84375 114.957031 187.472656 114.820312 187.5 L 114.070312 187.65625 L 114.378906 188.351562 C 117.082031 194.464844 121.691406 197.296875 125.082031 198.59375 C 128.191406 199.785156 130.839844 199.9375 131.609375 199.957031 C 133.191406 201.597656 134.566406 203.480469 135.691406 205.558594 C 134.773438 205.269531 133.8125 205.03125 132.832031 204.855469 C 127.507812 203.890625 120.960938 204.476562 113.382812 206.605469 L 112.660156 206.808594 L 113 207.476562 C 113.082031 207.640625 115.101562 211.5625 119.828125 215.675781 C 124.046875 219.34375 131.363281 223.882812 142.277344 224.683594 L 142.277344 230.179688 C 141.09375 229.363281 139.214844 228.191406 136.875 227.167969 C 131.574219 224.851562 126.453125 224.449219 122.070312 226.003906 L 121.601562 226.171875 L 121.667969 226.664062 C 121.683594 226.789062 122.109375 229.785156 125.136719 232.457031 C 128.179688 235.140625 132.703125 236.503906 138.582031 236.503906 C 140.078125 236.503906 141.660156 236.410156 143.289062 236.234375 C 143.957031 236.929688 144.882812 237.328125 145.832031 237.328125 L 172.765625 237.328125 C 174.230469 237.328125 175.613281 236.691406 176.570312 235.578125 C 177.339844 235.898438 178.152344 236.0625 178.984375 236.0625 L 183.152344 236.0625 L 183.074219 236.277344 L 224.539062 236.96875 L 224.539062 236.972656 L 225.355469 236.980469 L 225.441406 236.976562 L 225.761719 236.980469 L 225.808594 236.96875 C 227.457031 237.417969 229.054688 237.648438 230.554688 237.648438 C 233.40625 237.648438 235.917969 236.832031 238.023438 235.21875 C 240.699219 233.171875 241.738281 230.589844 241.78125 230.484375 L 242.042969 229.816406 L 241.34375 229.65625 C 236.636719 228.59375 232.464844 228.777344 228.9375 230.207031 C 226.15625 231.332031 224.578125 232.933594 224 233.613281 C 223.347656 232.644531 222.726562 231.5625 222.148438 230.390625 C 222.78125 230.503906 223.417969 230.5625 224.050781 230.5625 C 227.917969 230.5625 230.882812 228.476562 231.726562 227.8125 C 233.363281 228.207031 235 228.40625 236.589844 228.40625 C 241.90625 228.40625 246.804688 226.285156 251.152344 222.105469 C 255.449219 217.972656 257.578125 213.386719 257.667969 213.191406 L 257.957031 212.558594 L 257.292969 212.347656 C 247.265625 209.171875 239.914062 209.488281 235.4375 213.289062 C 230.238281 217.703125 230.753906 225.328125 230.917969 226.878906 C 230.113281 227.488281 226.121094 230.261719 221.488281 228.976562 C 221.421875 228.828125 221.355469 228.675781 221.292969 228.523438 C 222.109375 227.835938 224.386719 225.542969 228.320312 218.890625 C 228.394531 218.816406 236.171875 211.28125 241.179688 207.15625 C 242.019531 207.292969 242.855469 207.363281 243.671875 207.363281 C 248.09375 207.363281 252.515625 205.410156 256.46875 201.714844 C 260.066406 198.347656 262.058594 194.753906 262.140625 194.601562 L 262.5625 193.832031 L 261.691406 193.699219 C 252.8125 192.335938 247.492188 195.847656 244.59375 199.035156 C 241.792969 202.113281 240.667969 205.476562 240.460938 206.152344 C 237.261719 208.78125 232.832031 212.90625 230.355469 215.242188 C 234.886719 206.703125 238.28125 197.523438 238.421875 197.140625 C 238.464844 197.046875 238.867188 196.191406 239.628906 194.90625 C 245.34375 194.28125 252.925781 192.054688 256.648438 185.007812 C 258.894531 180.761719 258.652344 176.824219 258.640625 176.660156 L 258.59375 176.015625 L 257.953125 176.09375 C 250.367188 176.976562 245.8125 181.160156 243.324219 184.511719 C 242.8125 185.203125 242.332031 185.929688 241.894531 186.679688 C 242.664062 184.886719 243.351562 183.042969 243.945312 181.1875 C 246.164062 179.515625 248.183594 176.976562 249.945312 173.640625 L 249.957031 173.632812 C 254.027344 170.371094 258.847656 164.882812 258.6875 157.238281 C 258.59375 152.671875 256.757812 149.519531 256.679688 149.386719 L 256.335938 148.816406 L 255.792969 149.199219 C 255.664062 149.292969 252.617188 151.46875 250.234375 155.53125 C 248.058594 159.234375 246.058594 165.273438 248.859375 173.027344 C 247.5625 175.488281 246.128906 177.496094 244.601562 178.996094 C 246.113281 173.582031 246.882812 167.996094 246.882812 162.386719 C 246.882812 156.488281 246.046875 150.65625 244.402344 145.046875 C 244.347656 144.859375 244.222656 144.703125 244.050781 144.609375 C 243.875 144.515625 243.675781 144.496094 243.488281 144.554688 C 243.105469 144.667969 242.886719 145.074219 243 145.457031 C 244.605469 150.929688 245.417969 156.628906 245.417969 162.386719 C 245.417969 172.824219 242.699219 183.105469 237.554688 192.121094 C 236.871094 193.320312 236.113281 194.539062 235.304688 195.746094 C 235.691406 194.183594 236.054688 192.527344 236.378906 190.828125 C 242.523438 183.703125 242.761719 176.128906 241.875 171.027344 C 240.910156 165.457031 238.476562 161.597656 238.375 161.433594 L 237.875 160.652344 L 237.347656 161.421875 C 237.246094 161.566406 234.839844 165.113281 233.339844 170.570312 C 231.96875 175.570312 231.15625 183.179688 235.085938 191.019531 C 234.550781 193.753906 233.929688 196.320312 233.230469 198.65625 C 228.820312 204.464844 223.46875 209.378906 217.316406 213.257812 C 216.675781 208.878906 216.472656 205.265625 216.414062 203.875 C 217.132812 203.761719 217.753906 203.316406 218.078125 202.671875 L 221.597656 195.785156 C 222.140625 194.71875 221.765625 193.429688 220.746094 192.820312 C 221.011719 192.621094 221.234375 192.367188 221.382812 192.070312 L 223.902344 187.136719 C 224.160156 186.628906 224.207031 186.046875 224.03125 185.5 C 223.851562 184.957031 223.472656 184.511719 222.964844 184.253906 L 222.300781 183.917969 L 269.148438 86.585938 C 269.515625 85.828125 269.558594 84.972656 269.277344 84.179688 Z M 136.738281 177.683594 C 137.503906 178.636719 138.863281 180.546875 139.738281 182.988281 C 141.355469 187.484375 140.714844 191.746094 137.84375 195.65625 C 137.730469 195.4375 137.617188 195.214844 137.503906 194.992188 C 137.648438 194.191406 138.304688 190.183594 137.550781 185.949219 C 137.519531 185.789062 137.429688 185.648438 137.292969 185.554688 C 137.152344 185.457031 136.984375 185.425781 136.820312 185.457031 C 136.492188 185.523438 136.277344 185.839844 136.339844 186.175781 C 136.828125 188.941406 136.671875 191.664062 136.519531 193.121094 C 136.355469 192.816406 136.207031 192.523438 136.058594 192.238281 L 136.015625 192.148438 C 135.855469 191.820312 135.328125 190.585938 135.132812 188.449219 C 134.941406 186.28125 135.0625 182.65625 136.738281 177.683594 Z M 128.410156 169.921875 C 127.410156 168.25 126.175781 166.851562 124.746094 165.761719 C 124.683594 164.644531 124.65625 163.515625 124.65625 162.414062 C 124.65625 162.183594 124.65625 161.953125 124.660156 161.722656 C 125.410156 162.140625 126.21875 162.515625 127.066406 162.835938 C 127.445312 164.484375 127.761719 166.070312 128.011719 167.542969 L 128.183594 168.570312 C 128.261719 169.03125 128.335938 169.480469 128.410156 169.921875 Z M 118.242188 148.703125 C 118.003906 144.96875 118.800781 141.484375 119.175781 140.097656 C 120.167969 141.015625 122.589844 143.332031 124.710938 146.019531 C 127.445312 149.476562 128.828125 152.398438 128.828125 154.699219 C 128.828125 154.738281 128.949219 158.527344 127.882812 160.9375 C 126.710938 156.195312 125.261719 151.726562 124.25 148.804688 C 124.195312 148.648438 124.082031 148.523438 123.933594 148.453125 C 123.785156 148.378906 123.617188 148.371094 123.460938 148.425781 C 123.144531 148.539062 122.972656 148.890625 123.082031 149.210938 C 124.101562 152.140625 125.554688 156.625 126.71875 161.371094 C 121.484375 159.121094 118.636719 154.863281 118.242188 148.707031 Z M 118.605469 171.320312 C 116.828125 168.21875 115.992188 165.328125 115.707031 164.179688 C 116.742188 164.140625 118.746094 164.203125 120.929688 165.03125 C 125.097656 166.617188 127.9375 170.109375 129.375 175.414062 C 129.578125 176.484375 129.769531 177.445312 129.960938 178.347656 C 128.3125 176.988281 125.472656 174.402344 124.253906 171.867188 C 124.113281 171.574219 123.769531 171.441406 123.46875 171.566406 C 123.308594 171.632812 123.1875 171.757812 123.125 171.917969 C 123.0625 172.078125 123.070312 172.25 123.144531 172.402344 C 124.890625 176.035156 129.457031 179.5625 130.390625 180.257812 C 130.5 180.71875 130.613281 181.183594 130.734375 181.636719 C 124.355469 179.460938 120.617188 174.832031 118.605469 171.320312 Z M 127.847656 181.78125 C 128.894531 182.285156 129.992188 182.710938 131.117188 183.050781 C 132.054688 186.34375 133.242188 189.367188 134.851562 192.574219 C 134.921875 192.730469 134.976562 192.824219 134.988281 192.84375 C 135.25 193.363281 135.523438 193.886719 135.800781 194.402344 C 137.101562 196.8125 138.253906 199.308594 139.230469 201.824219 C 134.234375 196.09375 130.402344 189.351562 127.847656 181.78125 Z M 113.859375 178.320312 C 114.363281 178.914062 115.691406 180.480469 117.238281 182.289062 C 115.621094 182.183594 112.671875 181.664062 110.375 179.441406 C 107.875 177.023438 106.710938 173.214844 106.914062 168.125 C 107.832031 168.273438 109.605469 168.714844 111.484375 170.015625 C 114.617188 172.191406 116.753906 175.949219 117.664062 180.890625 C 116.417969 179.429688 115.339844 178.160156 114.796875 177.523438 C 114.578125 177.265625 114.1875 177.234375 113.929688 177.453125 C 113.804688 177.558594 113.726562 177.707031 113.714844 177.871094 C 113.699219 178.035156 113.75 178.195312 113.859375 178.320312 Z M 125.808594 195.65625 C 126.460938 195.964844 127.800781 196.671875 129.390625 197.933594 C 129.65625 198.148438 129.925781 198.371094 130.191406 198.609375 C 128.460938 198.386719 125.898438 197.820312 123.269531 196.390625 C 120.023438 194.625 117.53125 192.007812 115.859375 188.605469 C 116.996094 188.492188 119.207031 188.421875 121.648438 189.136719 C 125.621094 190.296875 128.566406 192.996094 130.402344 197.15625 C 128.605469 195.691406 127.085938 194.890625 126.328125 194.539062 C 126.171875 194.464844 126 194.460938 125.839844 194.527344 C 125.679688 194.589844 125.554688 194.71875 125.492188 194.878906 C 125.378906 195.175781 125.515625 195.519531 125.804688 195.65625 Z M 120.679688 214.78125 C 117.203125 211.765625 115.207031 208.777344 114.484375 207.585938 C 123.5625 205.136719 130.960938 204.980469 136.480469 207.121094 L 136.535156 207.242188 L 136.652344 207.191406 C 138.804688 208.050781 140.699219 209.285156 142.285156 210.859375 L 142.285156 217.171875 C 140.046875 216.820312 134.578125 215.835938 131.035156 214.191406 C 130.730469 214.050781 130.378906 214.179688 130.226562 214.476562 C 130.152344 214.628906 130.144531 214.796875 130.199219 214.953125 C 130.253906 215.113281 130.367188 215.242188 130.523438 215.3125 C 134.328125 217.074219 139.988281 218.070312 142.285156 218.421875 L 142.285156 223.457031 C 131.777344 222.664062 124.738281 218.300781 120.679688 214.78125 Z M 126.011719 231.585938 C 123.964844 229.800781 123.234375 227.808594 123.007812 226.996094 C 131.371094 224.375 139.851562 229.917969 142.285156 231.703125 L 142.285156 233.066406 C 140.964844 232.9375 137.519531 232.421875 133.125 230.394531 L 132.984375 230.332031 L 132.46875 231.449219 L 132.609375 231.511719 C 137.347656 233.695312 140.96875 234.199219 142.335938 234.3125 C 142.378906 234.574219 142.449219 234.832031 142.546875 235.078125 C 137.386719 235.578125 130.351562 235.367188 126.011719 231.585938 Z M 153.234375 164.699219 C 153.234375 164.03125 153.777344 163.488281 154.445312 163.488281 L 157.980469 163.488281 C 158.648438 163.488281 159.195312 164.03125 159.195312 164.699219 L 159.195312 168.800781 L 153.234375 168.800781 Z M 151.683594 170.375 C 151.683594 170.25 151.785156 170.148438 151.910156 170.148438 L 160.347656 170.148438 C 160.472656 170.148438 160.574219 170.25 160.574219 170.375 L 160.574219 171.449219 C 160.574219 171.574219 160.472656 171.675781 160.347656 171.675781 L 151.910156 171.675781 C 151.785156 171.675781 151.683594 171.574219 151.683594 171.449219 Z M 176.332031 232.320312 C 176.332031 234.277344 174.734375 235.871094 172.773438 235.871094 L 145.839844 235.871094 C 144.6875 235.871094 143.746094 234.914062 143.746094 233.734375 L 143.746094 184.628906 C 143.820312 184.03125 144.609375 178.765625 149.765625 177.355469 L 150.304688 177.210938 L 150.304688 174.460938 C 150.304688 173.792969 150.832031 173.25 151.484375 173.25 L 160.773438 173.25 C 161.425781 173.25 161.953125 173.792969 161.953125 174.460938 L 161.953125 177.210938 L 162.492188 177.355469 C 165.722656 178.238281 167.253906 180.679688 167.96875 182.570312 C 168.585938 184.207031 170.167969 185.304688 171.910156 185.304688 L 173.660156 185.304688 C 175.136719 185.304688 176.332031 186.503906 176.332031 187.972656 Z M 228.472656 231.796875 C 232.550781 229.773438 237.152344 230.082031 240.316406 230.703125 C 239.867188 231.523438 238.894531 233.027344 237.25 234.273438 C 234.167969 236.617188 230.210938 237.0625 225.492188 235.597656 C 225.445312 235.53125 225.402344 235.476562 225.359375 235.425781 C 225.15625 235.183594 224.957031 234.933594 224.753906 234.664062 C 224.949219 234.40625 226.121094 232.960938 228.472656 231.796875 Z M 236.25 214.234375 C 240.277344 210.8125 247.003906 210.503906 256.242188 213.316406 C 255.507812 214.703125 253.511719 218.152344 250.289062 221.25 C 245.125 226.207031 239.273438 228.078125 232.898438 226.820312 C 239.59375 221.148438 249.472656 217.179688 251.390625 216.4375 C 251.699219 216.320312 251.863281 215.96875 251.746094 215.652344 C 251.691406 215.496094 251.574219 215.375 251.421875 215.304688 C 251.273438 215.234375 251.101562 215.230469 250.949219 215.289062 C 249.003906 216.042969 242.214844 218.800781 236.097656 222.894531 C 236.480469 221.675781 237.539062 219.609375 238.832031 217.566406 C 239.011719 217.28125 238.929688 216.902344 238.648438 216.71875 C 238.507812 216.628906 238.339844 216.601562 238.179688 216.636719 C 238.015625 216.671875 237.878906 216.765625 237.789062 216.90625 C 236.605469 218.78125 234.640625 222.160156 234.75 223.824219 C 233.796875 224.507812 232.90625 225.199219 232.097656 225.882812 C 231.757812 218.84375 234.886719 215.390625 236.25 214.234375 Z M 245.542969 199.84375 C 249.28125 195.753906 254.347656 194.054688 260.601562 194.796875 C 259.929688 195.863281 258.160156 198.46875 255.621094 200.84375 C 251.46875 204.71875 247.066406 206.484375 242.535156 206.097656 C 246.359375 203.152344 250.125 201.113281 251.191406 200.554688 C 251.488281 200.398438 251.605469 200.039062 251.457031 199.738281 C 251.382812 199.589844 251.253906 199.476562 251.097656 199.425781 C 250.9375 199.375 250.769531 199.386719 250.621094 199.464844 C 249.613281 199.988281 246.078125 201.902344 242.378906 204.667969 C 242.960938 203.394531 243.96875 201.566406 245.542969 199.84375 Z M 251.292969 156.1875 C 252.972656 153.3125 255.082031 151.382812 255.953125 150.652344 C 256.410156 151.632812 257.414062 154.140625 257.472656 157.3125 C 257.5625 162.246094 255.488281 166.789062 251.3125 170.820312 C 251.96875 169.3125 252.589844 167.667969 253.160156 165.921875 C 254.613281 161.484375 255.359375 157.566406 255.613281 156.089844 C 255.640625 155.925781 255.601562 155.761719 255.503906 155.625 C 255.40625 155.492188 255.261719 155.402344 255.09375 155.378906 C 254.761719 155.328125 254.453125 155.550781 254.398438 155.882812 C 254.042969 157.929688 252.664062 165.070312 249.648438 171.472656 C 247.980469 166.046875 248.535156 160.90625 251.292969 156.1875 Z M 204.839844 183.390625 C 203.289062 182.667969 200.992188 181.203125 198.507812 178.289062 C 198.238281 177.972656 197.914062 177.726562 197.550781 177.558594 L 194.367188 176.078125 L 198.210938 172.738281 C 200.269531 178.058594 203.1875 181.644531 204.839844 183.390625 Z M 202.097656 163.984375 L 202.105469 163.980469 C 202.179688 163.953125 202.261719 163.960938 202.332031 163.996094 C 202.40625 164.03125 202.457031 164.089844 202.484375 164.164062 L 203.09375 165.910156 C 203.121094 165.984375 203.117188 166.066406 203.082031 166.136719 C 203.046875 166.207031 202.984375 166.261719 202.910156 166.289062 L 199.796875 167.375 L 198.988281 165.066406 Z M 180.078125 176.234375 L 176.835938 175.515625 C 176.347656 175.40625 176.113281 175.023438 176.058594 174.699219 C 176.003906 174.378906 176.097656 173.9375 176.523438 173.675781 C 181.457031 170.609375 190.722656 165.332031 197.292969 164.464844 C 197.320312 164.460938 197.34375 164.472656 197.351562 164.496094 L 199.285156 169.945312 C 199.324219 170.050781 199.292969 170.167969 199.207031 170.238281 L 192.230469 176.304688 C 192.085938 176.429688 191.894531 176.5 191.699219 176.5 C 190.914062 176.5 190.273438 177.140625 190.273438 177.925781 L 190.273438 182.929688 L 182.855469 182.929688 L 182.855469 179.6875 C 182.855469 178.015625 181.710938 176.597656 180.078125 176.234375 Z M 181.578125 184.65625 C 181.578125 184.382812 181.800781 184.160156 182.078125 184.160156 L 191.121094 184.160156 C 191.394531 184.160156 191.617188 184.382812 191.617188 184.65625 L 191.617188 187.484375 C 191.617188 187.761719 191.394531 187.984375 191.121094 187.984375 L 182.078125 187.984375 C 181.800781 187.984375 181.578125 187.761719 181.578125 187.484375 Z M 178.992188 234.839844 C 178.410156 234.839844 177.832031 234.738281 177.277344 234.535156 C 177.613281 233.851562 177.792969 233.085938 177.792969 232.324219 L 177.792969 198.046875 C 179.519531 192.992188 181.300781 190.019531 181.828125 189.195312 C 181.910156 189.207031 181.992188 189.214844 182.074219 189.214844 L 191.121094 189.214844 C 191.277344 189.214844 191.433594 189.191406 191.589844 189.144531 C 191.890625 189.609375 192.878906 191.210938 194.046875 193.882812 C 195.304688 196.765625 197.046875 201.554688 198.195312 208 C 198.242188 208.257812 198.265625 208.523438 198.269531 208.789062 C 193.082031 216.90625 186.332031 228.007812 183.628906 234.839844 Z M 184.859375 235.085938 C 189.191406 224.324219 203.265625 203.308594 206.105469 199.113281 L 206.726562 199.429688 C 205.664062 201.140625 202.054688 207.03125 198.449219 213.640625 C 192.71875 224.148438 189.726562 231.386719 189.5625 235.164062 L 184.859375 235.082031 Z M 190.796875 235.183594 C 191.1875 227.066406 206.027344 202.894531 207.828125 199.988281 L 208.078125 200.117188 C 206.453125 203.046875 193.167969 227.222656 193.558594 235.230469 Z M 203.59375 235.394531 C 203.707031 234.042969 204.074219 229.855469 204.691406 224.886719 C 204.738281 224.519531 205.667969 217.925781 205.675781 217.867188 C 205.730469 217.558594 205.558594 217.257812 205.28125 217.160156 C 205.105469 217.097656 204.917969 217.117188 204.761719 217.210938 C 204.605469 217.300781 204.496094 217.457031 204.464844 217.632812 C 204.140625 219.507812 203.855469 221.550781 203.613281 223.628906 C 202.867188 229.429688 202.441406 234.390625 202.359375 235.378906 L 200.371094 235.34375 C 200.492188 233.609375 201.058594 227.242188 203.132812 219.257812 C 203.246094 218.816406 204.550781 214.273438 205.191406 212.417969 C 205.292969 212.121094 205.175781 211.792969 204.914062 211.652344 C 204.753906 211.566406 204.566406 211.554688 204.394531 211.621094 C 204.226562 211.6875 204.09375 211.820312 204.035156 211.992188 C 204.003906 212.085938 203.972656 212.179688 203.941406 212.273438 C 203.9375 212.273438 203.9375 212.269531 203.9375 212.269531 C 200.152344 223.371094 199.289062 233.109375 199.136719 235.324219 L 197.839844 235.300781 C 197.953125 233.617188 198.5 227.898438 200.808594 222.007812 C 200.921875 221.71875 200.820312 221.382812 200.566406 221.234375 C 200.40625 221.136719 200.21875 221.117188 200.046875 221.175781 C 199.875 221.234375 199.738281 221.367188 199.671875 221.53125 C 197.273438 227.636719 196.722656 233.550781 196.605469 235.28125 L 194.796875 235.253906 C 194.582031 232.054688 196.976562 225.113281 201.714844 215.171875 C 204.699219 208.917969 207.742188 203.292969 208.917969 201.160156 C 205.957031 209.898438 205.589844 232.617188 205.554688 235.433594 L 203.597656 235.398438 Z M 206.785156 235.449219 C 206.824219 232.605469 207.226562 209.332031 210.203125 201.199219 L 210.320312 201.257812 C 207.667969 211.300781 208.53125 231.417969 208.738281 235.480469 Z M 209.976562 235.503906 C 209.898438 233.972656 209.660156 228.71875 209.683594 222.617188 C 209.722656 213.433594 210.328125 206.246094 211.445312 201.828125 L 211.730469 201.976562 C 210.777344 208.597656 211.082031 217.398438 211.503906 223.625 C 211.902344 229.457031 212.46875 234.167969 212.644531 235.546875 Z M 213.886719 235.566406 C 213.757812 234.554688 213.152344 229.664062 212.734375 223.535156 C 212.328125 217.539062 212.023438 209.042969 212.890625 202.566406 L 213.367188 202.808594 C 213.222656 216.71875 216.628906 232.464844 217.347656 235.625 Z M 225.941406 220.398438 L 225.859375 220.53125 L 225.886719 220.546875 C 225.675781 220.878906 225.472656 221.199219 225.269531 221.511719 C 224.003906 219.328125 223.535156 217.234375 223.875 215.28125 C 224.152344 213.707031 224.898438 212.621094 225.339844 212.097656 C 228.664062 215.941406 226.054688 220.21875 225.941406 220.398438 Z M 252.667969 182.378906 C 252.609375 182.21875 252.496094 182.09375 252.339844 182.023438 C 252.191406 181.957031 252.023438 181.949219 251.867188 182.011719 C 248.234375 183.417969 244.738281 186.089844 241.738281 189.742188 C 242.433594 188.136719 243.3125 186.617188 244.351562 185.222656 C 247.617188 180.832031 252.015625 178.203125 257.425781 177.410156 C 257.394531 178.570312 257.144531 181.484375 255.554688 184.476562 C 252.878906 189.507812 247.808594 192.570312 240.488281 193.570312 C 242.832031 189.992188 246.777344 185.308594 252.304688 183.160156 C 252.621094 183.039062 252.78125 182.691406 252.667969 182.375 Z M 234.539062 170.925781 C 235.585938 167.097656 237.175781 164.132812 237.847656 162.976562 C 238.503906 164.207031 240.007812 167.347656 240.683594 171.273438 C 241.765625 177.554688 240.472656 183.28125 236.84375 188.289062 C 237.945312 181.613281 238.253906 175.945312 238.320312 174.355469 C 238.328125 174.191406 238.269531 174.035156 238.15625 173.910156 C 238.042969 173.789062 237.890625 173.722656 237.722656 173.714844 C 237.382812 173.714844 237.105469 173.972656 237.089844 174.300781 C 237.015625 175.980469 236.691406 181.972656 235.488281 188.917969 C 232.546875 181.945312 233.34375 175.289062 234.535156 170.925781 Z M 217.597656 214.828125 C 223.914062 210.929688 229.433594 205.96875 234.003906 200.082031 C 234.003906 200.082031 234.269531 199.734375 234.320312 199.664062 C 235.976562 197.492188 237.5 195.199219 238.839844 192.847656 C 239.265625 192.101562 239.679688 191.339844 240.074219 190.570312 C 239.84375 191.21875 239.738281 191.621094 239.734375 191.644531 L 239.335938 193.042969 C 238.054688 195.027344 237.382812 196.492188 237.308594 196.65625 L 237.292969 196.691406 C 237.253906 196.800781 233.320312 207.519531 228.230469 216.605469 C 228.277344 214.402344 227.453125 212.4375 225.78125 210.765625 L 225.375 210.359375 L 224.941406 210.738281 C 224.890625 210.78125 219.867188 215.277344 224.515625 222.648438 C 222.628906 225.425781 221.402344 226.757812 220.816406 227.320312 C 219.449219 223.78125 218.363281 219.582031 217.578125 214.835938 Z M 216.523438 216.0625 C 218.066406 224.789062 220.589844 231.40625 224.027344 235.738281 L 218.617188 235.648438 C 217.917969 232.632812 214.550781 217.335938 214.59375 203.433594 L 215.050781 203.664062 C 215.097656 203.6875 215.140625 203.710938 215.191406 203.730469 C 215.246094 205.191406 215.5 210.269531 216.523438 216.0625 Z M 220.515625 195.226562 L 216.996094 202.117188 C 216.738281 202.625 216.117188 202.824219 215.609375 202.566406 L 205.839844 197.597656 C 205.59375 197.472656 205.410156 197.257812 205.324219 196.996094 C 205.238281 196.734375 205.261719 196.457031 205.386719 196.210938 L 208.90625 189.320312 C 209.03125 189.074219 209.242188 188.890625 209.503906 188.808594 C 209.765625 188.722656 210.046875 188.746094 210.292969 188.871094 L 220.0625 193.84375 C 220.570312 194.101562 220.773438 194.722656 220.511719 195.226562 Z M 222.417969 185.351562 C 222.636719 185.464844 222.796875 185.652344 222.875 185.882812 C 222.949219 186.117188 222.929688 186.363281 222.816406 186.582031 L 220.300781 191.515625 C 220.1875 191.734375 220 191.894531 219.765625 191.96875 C 219.535156 192.046875 219.285156 192.027344 219.070312 191.914062 L 218.550781 191.652344 L 218.535156 191.683594 L 213.449219 189.09375 L 213.460938 189.074219 L 212.503906 188.59375 C 212.054688 188.367188 211.871094 187.816406 212.097656 187.367188 L 214.59375 182.421875 C 214.703125 182.203125 214.894531 182.042969 215.125 181.964844 C 215.359375 181.886719 215.605469 181.90625 215.824219 182.015625 Z M 267.828125 85.957031 L 221.132812 183.003906 L 218.511719 181.617188 L 264.792969 84.507812 C 265.191406 83.671875 266.195312 83.316406 267.03125 83.710938 C 267.441406 83.902344 267.746094 84.242188 267.898438 84.667969 C 268.046875 85.09375 268.023438 85.550781 267.828125 85.957031 Z M 267.828125 85.957031 " fill-opacity="1" fill-rule="nonzero"/></g><path fill="#000000" d="M 154.542969 224.816406 C 154.707031 224.8125 154.859375 224.746094 154.972656 224.628906 C 155.089844 224.511719 155.152344 224.355469 155.148438 224.191406 L 154.679688 187.441406 C 154.675781 187.105469 154.398438 186.832031 154.0625 186.832031 L 154.054688 186.832031 C 153.890625 186.835938 153.738281 186.902344 153.621094 187.019531 C 153.507812 187.136719 153.445312 187.292969 153.445312 187.457031 L 153.917969 224.207031 C 153.921875 224.539062 154.199219 224.8125 154.542969 224.8125 Z M 154.542969 224.816406 " fill-opacity="1" fill-rule="nonzero"/><path fill="#000000" d="M 158.152344 217.050781 C 158.492188 217.050781 158.769531 216.773438 158.769531 216.433594 L 158.769531 198.015625 C 158.769531 197.675781 158.492188 197.398438 158.152344 197.398438 C 157.816406 197.398438 157.539062 197.675781 157.539062 198.015625 L 157.539062 216.433594 C 157.539062 216.773438 157.816406 217.050781 158.152344 217.050781 Z M 158.152344 217.050781 " fill-opacity="1" fill-rule="nonzero"/><path fill="#000000" d="M 168.089844 231.246094 L 171.3125 231.246094 C 172.921875 231.246094 174.230469 229.941406 174.230469 228.335938 L 174.230469 192.730469 C 174.230469 191.125 172.921875 189.820312 171.3125 189.820312 L 168.089844 189.820312 C 166.480469 189.820312 165.171875 191.125 165.171875 192.730469 L 165.171875 228.335938 C 165.171875 229.941406 166.480469 231.246094 168.089844 231.246094 Z M 172.996094 228.335938 C 172.996094 229.261719 172.242188 230.015625 171.3125 230.015625 L 168.089844 230.015625 C 167.160156 230.015625 166.40625 229.261719 166.40625 228.335938 L 166.40625 192.730469 C 166.40625 191.804688 167.160156 191.050781 168.089844 191.050781 L 171.3125 191.050781 C 172.242188 191.050781 172.996094 191.804688 172.996094 192.730469 Z M 172.996094 228.335938 " fill-opacity="1" fill-rule="nonzero"/><path fill="#000000" d="M 182.21875 173.722656 L 179.558594 173.160156 C 179.398438 173.125 179.234375 173.15625 179.097656 173.246094 C 178.957031 173.335938 178.863281 173.472656 178.828125 173.636719 C 178.792969 173.796875 178.824219 173.960938 178.914062 174.097656 C 179.003906 174.234375 179.140625 174.332031 179.304688 174.363281 L 181.964844 174.925781 C 183.023438 175.152344 183.796875 176.101562 183.796875 177.183594 L 183.796875 181.332031 C 183.796875 181.667969 184.070312 181.945312 184.410156 181.945312 C 184.75 181.945312 185.027344 181.667969 185.027344 181.332031 L 185.027344 177.183594 C 185.027344 175.523438 183.847656 174.066406 182.21875 173.722656 Z M 182.21875 173.722656 " fill-opacity="1" fill-rule="nonzero"/><path fill="#000000" d="M 195.65625 166.980469 C 195.742188 167.027344 195.804688 167.101562 195.832031 167.195312 L 196.164062 168.289062 C 196.195312 168.402344 196.273438 168.496094 196.375 168.550781 C 196.480469 168.609375 196.597656 168.617188 196.710938 168.585938 L 197.046875 168.484375 C 197.160156 168.449219 197.253906 168.375 197.308594 168.269531 C 197.363281 168.167969 197.378906 168.050781 197.34375 167.9375 L 197.03125 166.894531 C 196.910156 166.5 196.675781 166.171875 196.359375 165.96875 C 195.960938 165.707031 195.472656 165.640625 195.019531 165.78125 C 189.914062 167.371094 185.328125 169.875 184.042969 170.605469 C 183.898438 170.6875 183.796875 170.824219 183.753906 170.984375 C 183.710938 171.144531 183.734375 171.3125 183.820312 171.457031 C 183.933594 171.644531 184.132812 171.757812 184.347656 171.757812 C 184.453125 171.757812 184.558594 171.730469 184.652344 171.675781 C 185.90625 170.964844 190.386719 168.515625 195.386719 166.957031 C 195.476562 166.929688 195.574219 166.9375 195.65625 166.984375 Z M 195.65625 166.980469 " fill-opacity="1" fill-rule="nonzero"/><path fill="#000000" d="M 228.132812 139.078125 C 228.941406 139.078125 229.601562 138.421875 229.601562 137.613281 C 229.601562 136.800781 228.941406 136.144531 228.132812 136.144531 C 227.320312 136.144531 226.660156 136.800781 226.660156 137.613281 C 226.660156 138.421875 227.320312 139.078125 228.132812 139.078125 Z M 227.40625 137.613281 C 227.40625 137.210938 227.730469 136.886719 228.132812 136.886719 C 228.53125 136.886719 228.859375 137.210938 228.859375 137.613281 C 228.859375 138.011719 228.53125 138.335938 228.132812 138.335938 C 227.730469 138.335938 227.40625 138.011719 227.40625 137.613281 Z M 227.40625 137.613281 " fill-opacity="1" fill-rule="nonzero"/><g fill="#000000" fill-opacity="1"><g transform="translate(107.142295, 271.875539)"><g><path d="M 37.171875 4.1875 C 36.210938 4.1875 35.320312 3.890625 34.5 3.296875 C 33.6875 2.703125 32.953125 1.914062 32.296875 0.9375 C 31.640625 -0.03125 31.078125 -1.09375 30.609375 -2.25 C 30.140625 -3.414062 29.769531 -4.5625 29.5 -5.6875 C 29.226562 -6.8125 29.054688 -7.804688 28.984375 -8.671875 C 28.960938 -8.941406 28.941406 -9.179688 28.921875 -9.390625 C 28.910156 -9.597656 28.90625 -9.789062 28.90625 -9.96875 C 28.90625 -10.09375 28.96875 -10.226562 29.09375 -10.375 C 29.21875 -10.519531 29.328125 -10.609375 29.421875 -10.640625 C 30.804688 -11.003906 32.242188 -11.644531 33.734375 -12.5625 C 35.234375 -13.476562 36.707031 -14.535156 38.15625 -15.734375 C 39.601562 -16.929688 40.960938 -18.175781 42.234375 -19.46875 C 43.503906 -20.769531 44.617188 -21.992188 45.578125 -23.140625 C 46.546875 -24.296875 47.289062 -25.253906 47.8125 -26.015625 C 47.90625 -26.191406 48.050781 -26.28125 48.25 -26.28125 C 48.445312 -26.28125 48.613281 -26.203125 48.75 -26.046875 C 48.882812 -25.898438 48.953125 -25.726562 48.953125 -25.53125 C 48.953125 -25.40625 48.914062 -25.285156 48.84375 -25.171875 C 48.351562 -24.421875 47.640625 -23.476562 46.703125 -22.34375 C 45.765625 -21.207031 44.671875 -19.988281 43.421875 -18.6875 C 42.171875 -17.394531 40.816406 -16.128906 39.359375 -14.890625 C 37.898438 -13.660156 36.398438 -12.554688 34.859375 -11.578125 C 33.316406 -10.609375 31.800781 -9.882812 30.3125 -9.40625 C 30.363281 -8.738281 30.492188 -7.894531 30.703125 -6.875 C 30.910156 -5.851562 31.207031 -4.769531 31.59375 -3.625 C 31.976562 -2.488281 32.441406 -1.425781 32.984375 -0.4375 C 33.523438 0.539062 34.15625 1.34375 34.875 1.96875 C 35.59375 2.601562 36.394531 2.921875 37.28125 2.921875 C 38.84375 2.921875 40.070312 2.601562 40.96875 1.96875 C 41.875 1.34375 42.507812 0.675781 42.875 -0.03125 C 42.976562 -0.28125 43.164062 -0.40625 43.4375 -0.40625 C 43.613281 -0.40625 43.757812 -0.347656 43.875 -0.234375 C 44 -0.128906 44.0625 0.0078125 44.0625 0.1875 C 44.0625 0.332031 44.039062 0.441406 44 0.515625 C 43.519531 1.453125 42.75 2.296875 41.6875 3.046875 C 40.625 3.804688 39.117188 4.1875 37.171875 4.1875 Z M 12.3125 4.75 C 10.226562 4.75 8.503906 4.375 7.140625 3.625 C 5.785156 2.882812 4.78125 1.953125 4.125 0.828125 C 3.476562 -0.296875 3.15625 -1.445312 3.15625 -2.625 C 3.15625 -3.71875 3.425781 -4.765625 3.96875 -5.765625 C 4.507812 -6.765625 5.273438 -7.5625 6.265625 -8.15625 C 6.609375 -8.351562 6.992188 -8.519531 7.421875 -8.65625 C 7.859375 -8.789062 8.265625 -8.859375 8.640625 -8.859375 C 9.148438 -8.859375 9.632812 -8.753906 10.09375 -8.546875 C 10.550781 -8.335938 10.914062 -7.945312 11.1875 -7.375 C 11.289062 -7.175781 11.34375 -7.039062 11.34375 -6.96875 C 11.34375 -6.789062 11.273438 -6.644531 11.140625 -6.53125 C 11.003906 -6.425781 10.835938 -6.375 10.640625 -6.375 C 10.335938 -6.375 10.113281 -6.5 9.96875 -6.75 C 9.84375 -7.019531 9.648438 -7.21875 9.390625 -7.34375 C 9.128906 -7.46875 8.863281 -7.53125 8.59375 -7.53125 C 8.050781 -7.53125 7.460938 -7.320312 6.828125 -6.90625 C 6.203125 -6.5 5.664062 -5.925781 5.21875 -5.1875 C 4.78125 -4.445312 4.5625 -3.570312 4.5625 -2.5625 C 4.5625 -1.59375 4.8125 -0.65625 5.3125 0.25 C 5.820312 1.164062 6.644531 1.921875 7.78125 2.515625 C 8.914062 3.109375 10.425781 3.40625 12.3125 3.40625 C 13.8125 3.40625 15.285156 3.066406 16.734375 2.390625 C 18.179688 1.710938 19.539062 0.796875 20.8125 -0.359375 C 22.082031 -1.523438 23.210938 -2.84375 24.203125 -4.3125 C 25.191406 -5.78125 25.984375 -7.320312 26.578125 -8.9375 L 26.9375 -9.9375 C 27.289062 -10.820312 27.679688 -11.800781 28.109375 -12.875 C 28.546875 -13.945312 29.007812 -14.992188 29.5 -16.015625 C 30 -17.046875 30.46875 -17.929688 30.90625 -18.671875 C 29.71875 -18.523438 28.535156 -18.347656 27.359375 -18.140625 C 26.191406 -17.929688 25.050781 -17.59375 23.9375 -17.125 C 22.40625 -16.476562 21.144531 -15.75 20.15625 -14.9375 C 19.164062 -14.125 18.425781 -13.296875 17.9375 -12.453125 C 17.445312 -11.609375 17.148438 -10.832031 17.046875 -10.125 C 17.023438 -10 17.015625 -9.875 17.015625 -9.75 C 17.015625 -9.625 17.015625 -9.5 17.015625 -9.375 C 17.015625 -8.5625 17.195312 -7.972656 17.5625 -7.609375 C 17.9375 -7.253906 18.382812 -7.078125 18.90625 -7.078125 C 19.570312 -7.078125 20.269531 -7.289062 21 -7.71875 C 21.726562 -8.15625 22.367188 -8.75 22.921875 -9.5 C 23.472656 -10.257812 23.789062 -11.109375 23.875 -12.046875 C 23.875 -12.097656 23.878906 -12.160156 23.890625 -12.234375 C 23.898438 -12.304688 23.90625 -12.351562 23.90625 -12.375 C 23.90625 -12.601562 23.882812 -12.773438 23.84375 -12.890625 C 23.8125 -13.015625 23.769531 -13.09375 23.71875 -13.125 C 23.46875 -13.289062 23.34375 -13.472656 23.34375 -13.671875 C 23.34375 -14.066406 23.601562 -14.265625 24.125 -14.265625 C 24.394531 -14.265625 24.65625 -14.132812 24.90625 -13.875 C 25.15625 -13.613281 25.28125 -13.148438 25.28125 -12.484375 C 25.28125 -11.128906 24.929688 -9.941406 24.234375 -8.921875 C 23.546875 -7.910156 22.707031 -7.132812 21.71875 -6.59375 C 20.726562 -6.050781 19.765625 -5.78125 18.828125 -5.78125 C 17.910156 -5.78125 17.144531 -6.0625 16.53125 -6.625 C 15.914062 -7.195312 15.609375 -8.113281 15.609375 -9.375 C 15.609375 -9.5 15.609375 -9.632812 15.609375 -9.78125 C 15.609375 -9.925781 15.617188 -10.085938 15.640625 -10.265625 C 15.816406 -11.648438 16.535156 -13.082031 17.796875 -14.5625 C 19.054688 -16.050781 20.921875 -17.328125 23.390625 -18.390625 C 24.617188 -18.878906 25.921875 -19.226562 27.296875 -19.4375 C 28.671875 -19.644531 30.007812 -19.835938 31.3125 -20.015625 L 32.140625 -20.125 C 32.484375 -20.445312 32.859375 -20.722656 33.265625 -20.953125 C 33.671875 -21.191406 34.070312 -21.3125 34.46875 -21.3125 C 34.8125 -21.3125 35.09375 -21.222656 35.3125 -21.046875 C 35.539062 -20.878906 35.65625 -20.679688 35.65625 -20.453125 C 35.65625 -20.140625 35.460938 -19.84375 35.078125 -19.5625 C 34.691406 -19.289062 34.046875 -19.082031 33.140625 -18.9375 L 32.90625 -18.90625 C 32.414062 -18.3125 31.914062 -17.5625 31.40625 -16.65625 C 30.90625 -15.757812 30.429688 -14.820312 29.984375 -13.84375 C 29.535156 -12.863281 29.140625 -11.941406 28.796875 -11.078125 C 28.453125 -10.210938 28.191406 -9.519531 28.015625 -9 L 27.828125 -8.453125 C 27.160156 -6.816406 26.300781 -5.21875 25.25 -3.65625 C 24.207031 -2.101562 23.007812 -0.691406 21.65625 0.578125 C 20.3125 1.847656 18.847656 2.859375 17.265625 3.609375 C 15.691406 4.367188 14.039062 4.75 12.3125 4.75 Z M 12.3125 4.75 "/></g></g></g><g fill="#000000" fill-opacity="1"><g transform="translate(141.973725, 271.875539)"><g><path d="M 4.15625 0.703125 C 3.257812 0.703125 2.648438 0.453125 2.328125 -0.046875 C 2.015625 -0.554688 1.859375 -1.160156 1.859375 -1.859375 C 1.859375 -2.492188 1.9375 -3.140625 2.09375 -3.796875 C 2.25 -4.453125 2.40625 -5.003906 2.5625 -5.453125 C 2.582031 -5.546875 2.617188 -5.644531 2.671875 -5.75 C 2.617188 -5.820312 2.59375 -5.921875 2.59375 -6.046875 C 2.59375 -6.460938 2.742188 -6.71875 3.046875 -6.8125 C 3.484375 -7.957031 4 -9.113281 4.59375 -10.28125 C 5.1875 -11.457031 5.789062 -12.550781 6.40625 -13.5625 C 7.03125 -14.570312 7.578125 -15.425781 8.046875 -16.125 C 8.410156 -16.644531 8.859375 -17.269531 9.390625 -18 C 9.921875 -18.726562 10.523438 -19.445312 11.203125 -20.15625 C 11.890625 -20.875 12.628906 -21.472656 13.421875 -21.953125 C 14.210938 -22.441406 15.023438 -22.6875 15.859375 -22.6875 C 16.554688 -22.6875 17.046875 -22.535156 17.328125 -22.234375 C 17.609375 -21.941406 17.75 -21.546875 17.75 -21.046875 C 17.75 -20.578125 17.632812 -20.035156 17.40625 -19.421875 C 17.1875 -18.804688 16.894531 -18.164062 16.53125 -17.5 C 16.007812 -16.550781 15.289062 -15.519531 14.375 -14.40625 C 13.46875 -13.300781 12.457031 -12.203125 11.34375 -11.109375 C 10.226562 -10.023438 9.066406 -9.035156 7.859375 -8.140625 C 6.648438 -7.253906 5.460938 -6.539062 4.296875 -6 C 4.148438 -5.53125 3.953125 -4.921875 3.703125 -4.171875 C 3.453125 -3.421875 3.328125 -2.734375 3.328125 -2.109375 C 3.328125 -1.691406 3.414062 -1.335938 3.59375 -1.046875 C 3.769531 -0.765625 4.09375 -0.625 4.5625 -0.625 C 4.90625 -0.625 5.34375 -0.726562 5.875 -0.9375 C 6.40625 -1.15625 7.015625 -1.484375 7.703125 -1.921875 C 8.492188 -2.441406 9.25 -3.0625 9.96875 -3.78125 C 10.6875 -4.5 11.328125 -5.203125 11.890625 -5.890625 C 12.015625 -6.035156 12.128906 -6.109375 12.234375 -6.109375 C 12.359375 -6.109375 12.472656 -6.03125 12.578125 -5.875 C 12.691406 -5.71875 12.75 -5.539062 12.75 -5.34375 C 12.75 -5.09375 12.6875 -4.894531 12.5625 -4.75 C 12.195312 -4.226562 11.695312 -3.65625 11.0625 -3.03125 C 10.4375 -2.414062 9.875 -1.925781 9.375 -1.5625 C 9.125 -1.382812 8.828125 -1.179688 8.484375 -0.953125 C 8.140625 -0.734375 7.570312 -0.414062 6.78125 0 C 6.382812 0.195312 5.957031 0.363281 5.5 0.5 C 5.039062 0.632812 4.59375 0.703125 4.15625 0.703125 Z M 8.59375 -14.265625 C 7.851562 -13.179688 7.1875 -12.082031 6.59375 -10.96875 C 6 -9.851562 5.484375 -8.800781 5.046875 -7.8125 C 6.378906 -8.601562 7.710938 -9.597656 9.046875 -10.796875 C 10.378906 -11.992188 11.597656 -13.257812 12.703125 -14.59375 C 13.816406 -15.9375 14.707031 -17.203125 15.375 -18.390625 C 15.96875 -19.421875 16.265625 -20.207031 16.265625 -20.75 C 16.265625 -21.175781 16.066406 -21.390625 15.671875 -21.390625 C 15.078125 -21.390625 14.4375 -21.113281 13.75 -20.5625 C 13.0625 -20.019531 12.382812 -19.347656 11.71875 -18.546875 C 11.050781 -17.742188 10.441406 -16.945312 9.890625 -16.15625 C 9.347656 -15.363281 8.914062 -14.734375 8.59375 -14.265625 Z M 8.59375 -14.265625 "/></g></g></g><g fill="#000000" fill-opacity="1"><g transform="translate(151.348564, 271.875539)"><g><path d="M 4.5625 0.5625 C 3.789062 0.5625 3.140625 0.328125 2.609375 -0.140625 C 2.078125 -0.617188 1.8125 -1.4375 1.8125 -2.59375 C 1.8125 -3.382812 2.015625 -4.3125 2.421875 -5.375 C 2.835938 -6.4375 3.390625 -7.46875 4.078125 -8.46875 C 4.765625 -9.46875 5.53125 -10.296875 6.375 -10.953125 C 7.21875 -11.609375 8.070312 -11.9375 8.9375 -11.9375 C 9.5 -11.9375 9.921875 -11.734375 10.203125 -11.328125 C 10.492188 -10.921875 10.640625 -10.429688 10.640625 -9.859375 C 10.640625 -9.015625 10.363281 -8.195312 9.8125 -7.40625 C 9.269531 -6.613281 8.582031 -5.972656 7.75 -5.484375 C 6.925781 -4.992188 6.109375 -4.75 5.296875 -4.75 C 4.628906 -4.75 4.125 -4.957031 3.78125 -5.375 C 3.582031 -4.875 3.421875 -4.390625 3.296875 -3.921875 C 3.171875 -3.453125 3.109375 -3.007812 3.109375 -2.59375 C 3.109375 -1.875 3.265625 -1.375 3.578125 -1.09375 C 3.890625 -0.8125 4.28125 -0.671875 4.75 -0.671875 C 5.3125 -0.671875 5.941406 -0.816406 6.640625 -1.109375 C 7.347656 -1.410156 8.007812 -1.765625 8.625 -2.171875 C 9.25 -2.578125 9.707031 -2.914062 10 -3.1875 C 10.5 -3.601562 10.976562 -4.066406 11.4375 -4.578125 C 11.894531 -5.085938 12.296875 -5.5625 12.640625 -6 C 12.765625 -6.144531 12.898438 -6.21875 13.046875 -6.21875 C 13.191406 -6.21875 13.320312 -6.148438 13.4375 -6.015625 C 13.550781 -5.878906 13.609375 -5.710938 13.609375 -5.515625 C 13.609375 -5.347656 13.546875 -5.175781 13.421875 -5 C 13.023438 -4.507812 12.535156 -3.945312 11.953125 -3.3125 C 11.367188 -2.6875 10.71875 -2.101562 10 -1.5625 C 9.601562 -1.238281 9.097656 -0.914062 8.484375 -0.59375 C 7.867188 -0.269531 7.21875 0 6.53125 0.21875 C 5.851562 0.445312 5.195312 0.5625 4.5625 0.5625 Z M 5.21875 -5.9375 C 5.71875 -5.9375 6.253906 -6.09375 6.828125 -6.40625 C 7.410156 -6.726562 7.929688 -7.15625 8.390625 -7.6875 C 8.847656 -8.21875 9.148438 -8.789062 9.296875 -9.40625 C 9.328125 -9.457031 9.34375 -9.519531 9.34375 -9.59375 C 9.34375 -9.664062 9.34375 -9.726562 9.34375 -9.78125 C 9.34375 -10.226562 9.179688 -10.453125 8.859375 -10.453125 C 8.335938 -10.453125 7.789062 -10.257812 7.21875 -9.875 C 6.65625 -9.488281 6.117188 -8.976562 5.609375 -8.34375 C 5.109375 -7.71875 4.660156 -7.035156 4.265625 -6.296875 C 4.359375 -6.222656 4.453125 -6.15625 4.546875 -6.09375 C 4.648438 -6.03125 4.753906 -5.988281 4.859375 -5.96875 C 4.898438 -5.945312 4.957031 -5.9375 5.03125 -5.9375 C 5.113281 -5.9375 5.175781 -5.9375 5.21875 -5.9375 Z M 5.21875 -5.9375 "/></g></g></g><g fill="#000000" fill-opacity="1"><g transform="translate(161.353332, 271.875539)"><g><path d="M 3.1875 0.1875 C 2.5 0.1875 1.988281 -0.015625 1.65625 -0.421875 C 1.320312 -0.828125 1.15625 -1.34375 1.15625 -1.96875 C 1.15625 -2.65625 1.359375 -3.460938 1.765625 -4.390625 C 2.171875 -5.316406 2.707031 -6.273438 3.375 -7.265625 C 4.039062 -8.253906 4.773438 -9.171875 5.578125 -10.015625 C 6.378906 -10.867188 7.1875 -11.5625 8 -12.09375 C 8.820312 -12.625 9.578125 -12.890625 10.265625 -12.890625 C 10.734375 -12.890625 11.191406 -12.820312 11.640625 -12.6875 C 12.085938 -12.550781 12.453125 -12.285156 12.734375 -11.890625 C 13.015625 -11.492188 13.15625 -10.914062 13.15625 -10.15625 C 13.15625 -9.882812 13.082031 -9.6875 12.9375 -9.5625 C 12.789062 -9.4375 12.65625 -9.375 12.53125 -9.375 C 12.257812 -9.375 12.125 -9.472656 12.125 -9.671875 C 12 -10.460938 11.742188 -10.976562 11.359375 -11.21875 C 10.972656 -11.46875 10.609375 -11.59375 10.265625 -11.59375 C 9.773438 -11.59375 9.195312 -11.347656 8.53125 -10.859375 C 7.863281 -10.367188 7.179688 -9.738281 6.484375 -8.96875 C 5.796875 -8.195312 5.144531 -7.375 4.53125 -6.5 C 3.925781 -5.625 3.4375 -4.785156 3.0625 -3.984375 C 2.695312 -3.179688 2.515625 -2.519531 2.515625 -2 C 2.515625 -1.75 2.554688 -1.523438 2.640625 -1.328125 C 2.734375 -1.128906 2.878906 -1.03125 3.078125 -1.03125 C 3.441406 -1.03125 3.921875 -1.226562 4.515625 -1.625 C 5.109375 -2.019531 5.742188 -2.53125 6.421875 -3.15625 C 7.109375 -3.789062 7.785156 -4.453125 8.453125 -5.140625 C 9.117188 -5.835938 9.722656 -6.492188 10.265625 -7.109375 C 10.804688 -7.734375 11.226562 -8.226562 11.53125 -8.59375 C 11.675781 -8.820312 11.859375 -8.9375 12.078125 -8.9375 C 12.253906 -8.9375 12.414062 -8.875 12.5625 -8.75 C 12.707031 -8.625 12.78125 -8.460938 12.78125 -8.265625 C 12.78125 -8.160156 12.742188 -8.050781 12.671875 -7.9375 C 12.503906 -7.664062 12.300781 -7.28125 12.0625 -6.78125 C 11.832031 -6.289062 11.597656 -5.757812 11.359375 -5.1875 C 11.117188 -4.625 10.921875 -4.097656 10.765625 -3.609375 C 10.609375 -3.128906 10.53125 -2.765625 10.53125 -2.515625 C 10.53125 -2.273438 10.613281 -2.15625 10.78125 -2.15625 C 10.90625 -2.15625 11.0625 -2.210938 11.25 -2.328125 C 11.4375 -2.453125 11.601562 -2.566406 11.75 -2.671875 C 12.34375 -3.160156 12.910156 -3.679688 13.453125 -4.234375 C 13.992188 -4.796875 14.488281 -5.320312 14.9375 -5.8125 C 15.03125 -5.9375 15.15625 -6 15.3125 -6 C 15.425781 -6 15.539062 -5.929688 15.65625 -5.796875 C 15.769531 -5.660156 15.828125 -5.492188 15.828125 -5.296875 C 15.828125 -5.078125 15.765625 -4.894531 15.640625 -4.75 C 15.242188 -4.226562 14.722656 -3.648438 14.078125 -3.015625 C 13.441406 -2.390625 12.875 -1.890625 12.375 -1.515625 C 12.050781 -1.296875 11.671875 -1.082031 11.234375 -0.875 C 10.804688 -0.664062 10.394531 -0.5625 10 -0.5625 C 9.707031 -0.5625 9.460938 -0.648438 9.265625 -0.828125 C 9.066406 -1.015625 8.96875 -1.34375 8.96875 -1.8125 C 8.96875 -2.1875 9.03125 -2.609375 9.15625 -3.078125 C 9.28125 -3.546875 9.425781 -4.023438 9.59375 -4.515625 C 8.90625 -3.773438 8.164062 -3.046875 7.375 -2.328125 C 6.582031 -1.617188 5.820312 -1.019531 5.09375 -0.53125 C 4.363281 -0.0507812 3.726562 0.1875 3.1875 0.1875 Z M 3.1875 0.1875 "/></g></g></g><g fill="#000000" fill-opacity="1"><g transform="translate(173.729602, 271.875539)"><g><path d="M 1.96875 0.859375 C 1.789062 0.859375 1.628906 0.796875 1.484375 0.671875 C 1.335938 0.546875 1.265625 0.394531 1.265625 0.21875 C 1.265625 0.164062 1.285156 0.0664062 1.328125 -0.078125 C 1.828125 -1.140625 2.316406 -2.109375 2.796875 -2.984375 C 3.273438 -3.859375 3.773438 -4.71875 4.296875 -5.5625 C 4.515625 -5.90625 4.765625 -6.351562 5.046875 -6.90625 C 5.335938 -7.46875 5.617188 -8.070312 5.890625 -8.71875 C 6.160156 -9.375 6.390625 -10 6.578125 -10.59375 C 6.765625 -11.1875 6.859375 -11.671875 6.859375 -12.046875 C 6.859375 -12.242188 6.84375 -12.378906 6.8125 -12.453125 C 6.789062 -12.472656 6.78125 -12.519531 6.78125 -12.59375 C 6.78125 -12.789062 6.875 -12.957031 7.0625 -13.09375 C 7.25 -13.238281 7.425781 -13.3125 7.59375 -13.3125 C 7.789062 -13.3125 7.972656 -13.21875 8.140625 -13.03125 C 8.316406 -12.84375 8.40625 -12.523438 8.40625 -12.078125 C 8.40625 -11.710938 8.328125 -11.222656 8.171875 -10.609375 C 8.015625 -10.003906 7.75 -9.285156 7.375 -8.453125 C 7.175781 -8.023438 6.988281 -7.632812 6.8125 -7.28125 C 6.644531 -6.925781 6.472656 -6.585938 6.296875 -6.265625 C 7.265625 -7.273438 8.253906 -8.179688 9.265625 -8.984375 C 10.273438 -9.785156 11.175781 -10.421875 11.96875 -10.890625 C 12.757812 -11.359375 13.289062 -11.59375 13.5625 -11.59375 C 13.863281 -11.59375 14.070312 -11.503906 14.1875 -11.328125 C 14.3125 -11.160156 14.375 -10.96875 14.375 -10.75 C 14.375 -10.425781 14.28125 -10.0625 14.09375 -9.65625 C 13.914062 -9.25 13.726562 -8.882812 13.53125 -8.5625 C 13.332031 -8.238281 13.195312 -8.015625 13.125 -7.890625 C 12.851562 -7.472656 12.476562 -6.84375 12 -6 C 11.53125 -5.164062 11.140625 -4.351562 10.828125 -3.5625 C 10.722656 -3.289062 10.628906 -3.007812 10.546875 -2.71875 C 10.460938 -2.4375 10.421875 -2.195312 10.421875 -2 C 10.421875 -1.675781 10.554688 -1.515625 10.828125 -1.515625 C 11.066406 -1.515625 11.421875 -1.640625 11.890625 -1.890625 C 12.484375 -2.210938 13.035156 -2.625 13.546875 -3.125 C 14.054688 -3.632812 14.492188 -4.078125 14.859375 -4.453125 C 14.890625 -4.472656 15.007812 -4.59375 15.21875 -4.8125 C 15.425781 -5.039062 15.632812 -5.265625 15.84375 -5.484375 C 16.050781 -5.703125 16.15625 -5.8125 16.15625 -5.8125 C 16.257812 -5.9375 16.382812 -6 16.53125 -6 C 16.65625 -6 16.769531 -5.929688 16.875 -5.796875 C 16.988281 -5.660156 17.046875 -5.492188 17.046875 -5.296875 C 17.046875 -5.078125 16.984375 -4.894531 16.859375 -4.75 C 16.492188 -4.226562 15.988281 -3.65625 15.34375 -3.03125 C 14.695312 -2.414062 14.128906 -1.910156 13.640625 -1.515625 C 13.117188 -1.117188 12.59375 -0.800781 12.0625 -0.5625 C 11.53125 -0.332031 11.003906 -0.21875 10.484375 -0.21875 C 10.046875 -0.21875 9.675781 -0.300781 9.375 -0.46875 C 9.082031 -0.644531 8.9375 -1.109375 8.9375 -1.859375 C 8.9375 -2.796875 9.175781 -3.71875 9.65625 -4.625 C 10.132812 -5.539062 10.675781 -6.441406 11.28125 -7.328125 C 11.882812 -8.222656 12.382812 -9.066406 12.78125 -9.859375 C 12.164062 -9.484375 11.34375 -8.910156 10.3125 -8.140625 C 9.289062 -7.378906 8.21875 -6.484375 7.09375 -5.453125 C 5.96875 -4.429688 4.953125 -3.316406 4.046875 -2.109375 C 3.867188 -1.785156 3.679688 -1.4375 3.484375 -1.0625 C 3.285156 -0.695312 3.085938 -0.296875 2.890625 0.140625 C 2.671875 0.617188 2.363281 0.859375 1.96875 0.859375 Z M 1.96875 0.859375 "/></g></g></g><g fill="#000000" fill-opacity="1"><g transform="translate(187.36574, 271.875539)"><g><path d="M 7.15625 2.328125 C 5.664062 2.328125 4.585938 2 3.921875 1.34375 C 3.253906 0.695312 2.921875 -0.0195312 2.921875 -0.8125 C 2.921875 -1.65625 3.25 -2.421875 3.90625 -3.109375 C 4.5625 -3.804688 5.457031 -4.15625 6.59375 -4.15625 C 6.96875 -4.15625 7.335938 -4.117188 7.703125 -4.046875 C 8.472656 -3.890625 9.242188 -3.613281 10.015625 -3.21875 C 10.796875 -2.820312 11.535156 -2.476562 12.234375 -2.1875 C 12.472656 -2.0625 12.726562 -1.9375 13 -1.8125 C 13.28125 -1.6875 13.554688 -1.566406 13.828125 -1.453125 C 14.660156 -2.191406 15.546875 -3.144531 16.484375 -4.3125 C 17.429688 -5.488281 18.410156 -6.785156 19.421875 -8.203125 C 20.429688 -9.628906 21.46875 -11.078125 22.53125 -12.546875 C 23.59375 -14.015625 24.660156 -15.421875 25.734375 -16.765625 C 26.816406 -18.117188 27.875 -19.285156 28.90625 -20.265625 C 28.257812 -20.367188 27.5625 -20.441406 26.8125 -20.484375 C 26.0625 -20.535156 25.253906 -20.5625 24.390625 -20.5625 C 21.796875 -20.5625 19.523438 -20.328125 17.578125 -19.859375 C 15.640625 -19.390625 13.988281 -18.78125 12.625 -18.03125 C 11.269531 -17.28125 10.203125 -16.472656 9.421875 -15.609375 C 8.648438 -14.742188 8.128906 -13.914062 7.859375 -13.125 C 7.660156 -12.476562 7.5625 -11.945312 7.5625 -11.53125 C 7.5625 -10.6875 7.828125 -10.0625 8.359375 -9.65625 C 8.890625 -9.25 9.578125 -9.046875 10.421875 -9.046875 C 11.234375 -9.046875 12.144531 -9.28125 13.15625 -9.75 C 14.164062 -10.21875 15.203125 -10.945312 16.265625 -11.9375 C 17.328125 -12.925781 18.304688 -14.195312 19.203125 -15.75 C 19.328125 -15.96875 19.507812 -16.078125 19.75 -16.078125 C 19.925781 -16.078125 20.085938 -16.019531 20.234375 -15.90625 C 20.378906 -15.800781 20.453125 -15.648438 20.453125 -15.453125 C 20.453125 -15.359375 20.414062 -15.25 20.34375 -15.125 C 19.351562 -13.414062 18.265625 -12.015625 17.078125 -10.921875 C 15.898438 -9.835938 14.71875 -9.035156 13.53125 -8.515625 C 12.34375 -8.003906 11.242188 -7.75 10.234375 -7.75 C 9.066406 -7.75 8.101562 -8.066406 7.34375 -8.703125 C 6.59375 -9.347656 6.21875 -10.265625 6.21875 -11.453125 C 6.21875 -12.117188 6.34375 -12.8125 6.59375 -13.53125 C 6.914062 -14.519531 7.523438 -15.503906 8.421875 -16.484375 C 9.328125 -17.472656 10.519531 -18.375 12 -19.1875 C 13.488281 -20.007812 15.265625 -20.664062 17.328125 -21.15625 C 19.390625 -21.65625 21.742188 -21.90625 24.390625 -21.90625 C 25.523438 -21.90625 26.566406 -21.851562 27.515625 -21.75 C 28.472656 -21.65625 29.359375 -21.519531 30.171875 -21.34375 C 30.835938 -21.863281 31.488281 -22.269531 32.125 -22.5625 C 32.769531 -22.863281 33.390625 -23.015625 33.984375 -23.015625 C 34.203125 -23.015625 34.359375 -22.945312 34.453125 -22.8125 C 34.554688 -22.675781 34.609375 -22.535156 34.609375 -22.390625 C 34.609375 -22.210938 34.554688 -22.054688 34.453125 -21.921875 C 34.359375 -21.785156 34.203125 -21.71875 33.984375 -21.71875 C 33.390625 -21.71875 32.660156 -21.445312 31.796875 -20.90625 C 33.503906 -20.332031 34.742188 -19.597656 35.515625 -18.703125 C 36.296875 -17.816406 36.6875 -16.882812 36.6875 -15.90625 C 36.6875 -14.664062 36.113281 -13.476562 34.96875 -12.34375 C 33.820312 -11.207031 32.222656 -10.378906 30.171875 -9.859375 C 31.359375 -9.367188 32.222656 -8.734375 32.765625 -7.953125 C 33.304688 -7.171875 33.578125 -6.335938 33.578125 -5.453125 C 33.578125 -4.535156 33.316406 -3.617188 32.796875 -2.703125 C 32.273438 -1.785156 31.539062 -0.953125 30.59375 -0.203125 C 29.644531 0.546875 28.515625 1.148438 27.203125 1.609375 C 25.890625 2.066406 24.429688 2.296875 22.828125 2.296875 C 21.316406 2.296875 19.773438 2.0625 18.203125 1.59375 C 17.484375 1.375 16.78125 1.132812 16.09375 0.875 C 15.414062 0.613281 14.742188 0.347656 14.078125 0.078125 C 13.191406 0.710938 12.101562 1.242188 10.8125 1.671875 C 9.53125 2.109375 8.3125 2.328125 7.15625 2.328125 Z M 18.5625 0.375 C 19.3125 0.59375 20.035156 0.75 20.734375 0.84375 C 21.441406 0.945312 22.113281 1 22.75 1 C 24.632812 1 26.28125 0.671875 27.6875 0.015625 C 29.09375 -0.640625 30.195312 -1.457031 31 -2.4375 C 31.800781 -3.425781 32.203125 -4.40625 32.203125 -5.375 C 32.203125 -5.9375 32.046875 -6.476562 31.734375 -7 C 31.429688 -7.519531 30.945312 -7.96875 30.28125 -8.34375 C 29.488281 -8.757812 28.585938 -9.039062 27.578125 -9.1875 C 26.566406 -9.332031 25.625 -9.421875 24.75 -9.453125 C 24.3125 -9.503906 24.09375 -9.703125 24.09375 -10.046875 C 24.09375 -10.367188 24.328125 -10.601562 24.796875 -10.75 C 25.359375 -10.675781 25.914062 -10.640625 26.46875 -10.640625 C 28.164062 -10.640625 29.675781 -10.894531 31 -11.40625 C 32.320312 -11.925781 33.363281 -12.597656 34.125 -13.421875 C 34.894531 -14.253906 35.28125 -15.101562 35.28125 -15.96875 C 35.28125 -16.757812 34.898438 -17.515625 34.140625 -18.234375 C 33.390625 -18.953125 32.175781 -19.519531 30.5 -19.9375 C 29.664062 -19.269531 28.800781 -18.445312 27.90625 -17.46875 C 27.019531 -16.5 26.164062 -15.421875 25.34375 -14.234375 C 24.800781 -13.460938 24.113281 -12.488281 23.28125 -11.3125 C 22.457031 -10.144531 21.570312 -8.90625 20.625 -7.59375 C 19.675781 -6.289062 18.722656 -5.046875 17.765625 -3.859375 C 16.816406 -2.671875 15.945312 -1.679688 15.15625 -0.890625 C 15.695312 -0.640625 16.257812 -0.410156 16.84375 -0.203125 C 17.425781 0.00390625 18 0.195312 18.5625 0.375 Z M 6.859375 1.03125 C 7.773438 1.0625 8.765625 0.925781 9.828125 0.625 C 10.890625 0.332031 11.828125 -0.0625 12.640625 -0.5625 C 12.046875 -0.832031 11.453125 -1.101562 10.859375 -1.375 C 10.265625 -1.644531 9.671875 -1.90625 9.078125 -2.15625 C 8.335938 -2.5 7.78125 -2.707031 7.40625 -2.78125 C 7.289062 -2.800781 7.171875 -2.816406 7.046875 -2.828125 C 6.921875 -2.847656 6.796875 -2.859375 6.671875 -2.859375 C 5.929688 -2.859375 5.335938 -2.644531 4.890625 -2.21875 C 4.441406 -1.800781 4.21875 -1.347656 4.21875 -0.859375 C 4.21875 -0.410156 4.425781 0.00390625 4.84375 0.390625 C 5.269531 0.773438 5.941406 0.988281 6.859375 1.03125 Z M 6.859375 1.03125 "/></g></g></g><g fill="#000000" fill-opacity="1"><g transform="translate(220.789089, 271.875539)"><g><path d="M 1.96875 0.859375 C 1.789062 0.859375 1.628906 0.796875 1.484375 0.671875 C 1.335938 0.546875 1.265625 0.394531 1.265625 0.21875 C 1.265625 0.164062 1.285156 0.0664062 1.328125 -0.078125 C 1.828125 -1.140625 2.316406 -2.109375 2.796875 -2.984375 C 3.273438 -3.859375 3.773438 -4.71875 4.296875 -5.5625 C 4.515625 -5.90625 4.765625 -6.351562 5.046875 -6.90625 C 5.335938 -7.46875 5.617188 -8.070312 5.890625 -8.71875 C 6.160156 -9.375 6.390625 -10 6.578125 -10.59375 C 6.765625 -11.1875 6.859375 -11.671875 6.859375 -12.046875 C 6.859375 -12.242188 6.84375 -12.378906 6.8125 -12.453125 C 6.789062 -12.472656 6.78125 -12.519531 6.78125 -12.59375 C 6.78125 -12.789062 6.875 -12.957031 7.0625 -13.09375 C 7.25 -13.238281 7.425781 -13.3125 7.59375 -13.3125 C 7.789062 -13.3125 7.972656 -13.21875 8.140625 -13.03125 C 8.316406 -12.84375 8.40625 -12.523438 8.40625 -12.078125 C 8.40625 -11.710938 8.328125 -11.222656 8.171875 -10.609375 C 8.015625 -10.003906 7.75 -9.285156 7.375 -8.453125 C 7.175781 -8.023438 6.988281 -7.632812 6.8125 -7.28125 C 6.644531 -6.925781 6.472656 -6.585938 6.296875 -6.265625 C 7.265625 -7.273438 8.253906 -8.179688 9.265625 -8.984375 C 10.273438 -9.785156 11.175781 -10.421875 11.96875 -10.890625 C 12.757812 -11.359375 13.289062 -11.59375 13.5625 -11.59375 C 13.863281 -11.59375 14.070312 -11.503906 14.1875 -11.328125 C 14.3125 -11.160156 14.375 -10.96875 14.375 -10.75 C 14.375 -10.425781 14.28125 -10.0625 14.09375 -9.65625 C 13.914062 -9.25 13.726562 -8.882812 13.53125 -8.5625 C 13.332031 -8.238281 13.195312 -8.015625 13.125 -7.890625 C 12.851562 -7.472656 12.476562 -6.84375 12 -6 C 11.53125 -5.164062 11.140625 -4.351562 10.828125 -3.5625 C 10.722656 -3.289062 10.628906 -3.007812 10.546875 -2.71875 C 10.460938 -2.4375 10.421875 -2.195312 10.421875 -2 C 10.421875 -1.675781 10.554688 -1.515625 10.828125 -1.515625 C 11.066406 -1.515625 11.421875 -1.640625 11.890625 -1.890625 C 12.484375 -2.210938 13.035156 -2.625 13.546875 -3.125 C 14.054688 -3.632812 14.492188 -4.078125 14.859375 -4.453125 C 14.890625 -4.472656 15.007812 -4.59375 15.21875 -4.8125 C 15.425781 -5.039062 15.632812 -5.265625 15.84375 -5.484375 C 16.050781 -5.703125 16.15625 -5.8125 16.15625 -5.8125 C 16.257812 -5.9375 16.382812 -6 16.53125 -6 C 16.65625 -6 16.769531 -5.929688 16.875 -5.796875 C 16.988281 -5.660156 17.046875 -5.492188 17.046875 -5.296875 C 17.046875 -5.078125 16.984375 -4.894531 16.859375 -4.75 C 16.492188 -4.226562 15.988281 -3.65625 15.34375 -3.03125 C 14.695312 -2.414062 14.128906 -1.910156 13.640625 -1.515625 C 13.117188 -1.117188 12.59375 -0.800781 12.0625 -0.5625 C 11.53125 -0.332031 11.003906 -0.21875 10.484375 -0.21875 C 10.046875 -0.21875 9.675781 -0.300781 9.375 -0.46875 C 9.082031 -0.644531 8.9375 -1.109375 8.9375 -1.859375 C 8.9375 -2.796875 9.175781 -3.71875 9.65625 -4.625 C 10.132812 -5.539062 10.675781 -6.441406 11.28125 -7.328125 C 11.882812 -8.222656 12.382812 -9.066406 12.78125 -9.859375 C 12.164062 -9.484375 11.34375 -8.910156 10.3125 -8.140625 C 9.289062 -7.378906 8.21875 -6.484375 7.09375 -5.453125 C 5.96875 -4.429688 4.953125 -3.316406 4.046875 -2.109375 C 3.867188 -1.785156 3.679688 -1.4375 3.484375 -1.0625 C 3.285156 -0.695312 3.085938 -0.296875 2.890625 0.140625 C 2.671875 0.617188 2.363281 0.859375 1.96875 0.859375 Z M 1.96875 0.859375 "/></g></g></g><g fill="#000000" fill-opacity="1"><g transform="translate(234.425227, 271.875539)"><g><path d="M 7.15625 2.328125 C 5.664062 2.328125 4.585938 2 3.921875 1.34375 C 3.253906 0.695312 2.921875 -0.0195312 2.921875 -0.8125 C 2.921875 -1.65625 3.25 -2.421875 3.90625 -3.109375 C 4.5625 -3.804688 5.457031 -4.15625 6.59375 -4.15625 C 6.96875 -4.15625 7.335938 -4.117188 7.703125 -4.046875 C 8.472656 -3.890625 9.242188 -3.613281 10.015625 -3.21875 C 10.796875 -2.820312 11.535156 -2.476562 12.234375 -2.1875 C 12.472656 -2.0625 12.726562 -1.9375 13 -1.8125 C 13.28125 -1.6875 13.554688 -1.566406 13.828125 -1.453125 C 14.660156 -2.191406 15.546875 -3.144531 16.484375 -4.3125 C 17.429688 -5.488281 18.410156 -6.785156 19.421875 -8.203125 C 20.429688 -9.628906 21.46875 -11.078125 22.53125 -12.546875 C 23.59375 -14.015625 24.660156 -15.421875 25.734375 -16.765625 C 26.816406 -18.117188 27.875 -19.285156 28.90625 -20.265625 C 28.257812 -20.367188 27.5625 -20.441406 26.8125 -20.484375 C 26.0625 -20.535156 25.253906 -20.5625 24.390625 -20.5625 C 21.796875 -20.5625 19.523438 -20.328125 17.578125 -19.859375 C 15.640625 -19.390625 13.988281 -18.78125 12.625 -18.03125 C 11.269531 -17.28125 10.203125 -16.472656 9.421875 -15.609375 C 8.648438 -14.742188 8.128906 -13.914062 7.859375 -13.125 C 7.660156 -12.476562 7.5625 -11.945312 7.5625 -11.53125 C 7.5625 -10.6875 7.828125 -10.0625 8.359375 -9.65625 C 8.890625 -9.25 9.578125 -9.046875 10.421875 -9.046875 C 11.234375 -9.046875 12.144531 -9.28125 13.15625 -9.75 C 14.164062 -10.21875 15.203125 -10.945312 16.265625 -11.9375 C 17.328125 -12.925781 18.304688 -14.195312 19.203125 -15.75 C 19.328125 -15.96875 19.507812 -16.078125 19.75 -16.078125 C 19.925781 -16.078125 20.085938 -16.019531 20.234375 -15.90625 C 20.378906 -15.800781 20.453125 -15.648438 20.453125 -15.453125 C 20.453125 -15.359375 20.414062 -15.25 20.34375 -15.125 C 19.351562 -13.414062 18.265625 -12.015625 17.078125 -10.921875 C 15.898438 -9.835938 14.71875 -9.035156 13.53125 -8.515625 C 12.34375 -8.003906 11.242188 -7.75 10.234375 -7.75 C 9.066406 -7.75 8.101562 -8.066406 7.34375 -8.703125 C 6.59375 -9.347656 6.21875 -10.265625 6.21875 -11.453125 C 6.21875 -12.117188 6.34375 -12.8125 6.59375 -13.53125 C 6.914062 -14.519531 7.523438 -15.503906 8.421875 -16.484375 C 9.328125 -17.472656 10.519531 -18.375 12 -19.1875 C 13.488281 -20.007812 15.265625 -20.664062 17.328125 -21.15625 C 19.390625 -21.65625 21.742188 -21.90625 24.390625 -21.90625 C 25.523438 -21.90625 26.566406 -21.851562 27.515625 -21.75 C 28.472656 -21.65625 29.359375 -21.519531 30.171875 -21.34375 C 30.835938 -21.863281 31.488281 -22.269531 32.125 -22.5625 C 32.769531 -22.863281 33.390625 -23.015625 33.984375 -23.015625 C 34.203125 -23.015625 34.359375 -22.945312 34.453125 -22.8125 C 34.554688 -22.675781 34.609375 -22.535156 34.609375 -22.390625 C 34.609375 -22.210938 34.554688 -22.054688 34.453125 -21.921875 C 34.359375 -21.785156 34.203125 -21.71875 33.984375 -21.71875 C 33.390625 -21.71875 32.660156 -21.445312 31.796875 -20.90625 C 33.503906 -20.332031 34.742188 -19.597656 35.515625 -18.703125 C 36.296875 -17.816406 36.6875 -16.882812 36.6875 -15.90625 C 36.6875 -14.664062 36.113281 -13.476562 34.96875 -12.34375 C 33.820312 -11.207031 32.222656 -10.378906 30.171875 -9.859375 C 31.359375 -9.367188 32.222656 -8.734375 32.765625 -7.953125 C 33.304688 -7.171875 33.578125 -6.335938 33.578125 -5.453125 C 33.578125 -4.535156 33.316406 -3.617188 32.796875 -2.703125 C 32.273438 -1.785156 31.539062 -0.953125 30.59375 -0.203125 C 29.644531 0.546875 28.515625 1.148438 27.203125 1.609375 C 25.890625 2.066406 24.429688 2.296875 22.828125 2.296875 C 21.316406 2.296875 19.773438 2.0625 18.203125 1.59375 C 17.484375 1.375 16.78125 1.132812 16.09375 0.875 C 15.414062 0.613281 14.742188 0.347656 14.078125 0.078125 C 13.191406 0.710938 12.101562 1.242188 10.8125 1.671875 C 9.53125 2.109375 8.3125 2.328125 7.15625 2.328125 Z M 18.5625 0.375 C 19.3125 0.59375 20.035156 0.75 20.734375 0.84375 C 21.441406 0.945312 22.113281 1 22.75 1 C 24.632812 1 26.28125 0.671875 27.6875 0.015625 C 29.09375 -0.640625 30.195312 -1.457031 31 -2.4375 C 31.800781 -3.425781 32.203125 -4.40625 32.203125 -5.375 C 32.203125 -5.9375 32.046875 -6.476562 31.734375 -7 C 31.429688 -7.519531 30.945312 -7.96875 30.28125 -8.34375 C 29.488281 -8.757812 28.585938 -9.039062 27.578125 -9.1875 C 26.566406 -9.332031 25.625 -9.421875 24.75 -9.453125 C 24.3125 -9.503906 24.09375 -9.703125 24.09375 -10.046875 C 24.09375 -10.367188 24.328125 -10.601562 24.796875 -10.75 C 25.359375 -10.675781 25.914062 -10.640625 26.46875 -10.640625 C 28.164062 -10.640625 29.675781 -10.894531 31 -11.40625 C 32.320312 -11.925781 33.363281 -12.597656 34.125 -13.421875 C 34.894531 -14.253906 35.28125 -15.101562 35.28125 -15.96875 C 35.28125 -16.757812 34.898438 -17.515625 34.140625 -18.234375 C 33.390625 -18.953125 32.175781 -19.519531 30.5 -19.9375 C 29.664062 -19.269531 28.800781 -18.445312 27.90625 -17.46875 C 27.019531 -16.5 26.164062 -15.421875 25.34375 -14.234375 C 24.800781 -13.460938 24.113281 -12.488281 23.28125 -11.3125 C 22.457031 -10.144531 21.570312 -8.90625 20.625 -7.59375 C 19.675781 -6.289062 18.722656 -5.046875 17.765625 -3.859375 C 16.816406 -2.671875 15.945312 -1.679688 15.15625 -0.890625 C 15.695312 -0.640625 16.257812 -0.410156 16.84375 -0.203125 C 17.425781 0.00390625 18 0.195312 18.5625 0.375 Z M 6.859375 1.03125 C 7.773438 1.0625 8.765625 0.925781 9.828125 0.625 C 10.890625 0.332031 11.828125 -0.0625 12.640625 -0.5625 C 12.046875 -0.832031 11.453125 -1.101562 10.859375 -1.375 C 10.265625 -1.644531 9.671875 -1.90625 9.078125 -2.15625 C 8.335938 -2.5 7.78125 -2.707031 7.40625 -2.78125 C 7.289062 -2.800781 7.171875 -2.816406 7.046875 -2.828125 C 6.921875 -2.847656 6.796875 -2.859375 6.671875 -2.859375 C 5.929688 -2.859375 5.335938 -2.644531 4.890625 -2.21875 C 4.441406 -1.800781 4.21875 -1.347656 4.21875 -0.859375 C 4.21875 -0.410156 4.425781 0.00390625 4.84375 0.390625 C 5.269531 0.773438 5.941406 0.988281 6.859375 1.03125 Z M 6.859375 1.03125 "/></g></g></g><g fill="#000000" fill-opacity="1"><g transform="translate(113.559035, 298.788732)"><g><path d="M 3.765625 -6.84375 C 4.367188 -6.84375 4.894531 -6.738281 5.34375 -6.53125 C 5.789062 -6.332031 6.132812 -6.046875 6.375 -5.671875 C 6.613281 -5.304688 6.734375 -4.867188 6.734375 -4.359375 C 6.734375 -3.859375 6.613281 -3.421875 6.375 -3.046875 C 6.132812 -2.671875 5.789062 -2.382812 5.34375 -2.1875 C 4.894531 -1.988281 4.367188 -1.890625 3.765625 -1.890625 L 2.390625 -1.890625 L 2.390625 0 L 0.8125 0 L 0.8125 -6.84375 Z M 3.6875 -3.171875 C 4.15625 -3.171875 4.515625 -3.273438 4.765625 -3.484375 C 5.015625 -3.691406 5.140625 -3.984375 5.140625 -4.359375 C 5.140625 -4.742188 5.015625 -5.035156 4.765625 -5.234375 C 4.515625 -5.441406 4.15625 -5.546875 3.6875 -5.546875 L 2.390625 -5.546875 L 2.390625 -3.171875 Z M 3.6875 -3.171875 "/></g></g></g><g fill="#000000" fill-opacity="1"><g transform="translate(121.935285, 298.788732)"><g><path d="M 5.171875 0 L 3.84375 -1.90625 L 2.390625 -1.90625 L 2.390625 0 L 0.8125 0 L 0.8125 -6.84375 L 3.765625 -6.84375 C 4.367188 -6.84375 4.894531 -6.738281 5.34375 -6.53125 C 5.789062 -6.332031 6.132812 -6.046875 6.375 -5.671875 C 6.613281 -5.304688 6.734375 -4.867188 6.734375 -4.359375 C 6.734375 -3.847656 6.609375 -3.40625 6.359375 -3.03125 C 6.117188 -2.664062 5.773438 -2.390625 5.328125 -2.203125 L 6.859375 0 Z M 5.140625 -4.359375 C 5.140625 -4.742188 5.015625 -5.035156 4.765625 -5.234375 C 4.515625 -5.441406 4.15625 -5.546875 3.6875 -5.546875 L 2.390625 -5.546875 L 2.390625 -3.171875 L 3.6875 -3.171875 C 4.15625 -3.171875 4.515625 -3.273438 4.765625 -3.484375 C 5.015625 -3.691406 5.140625 -3.984375 5.140625 -4.359375 Z M 5.140625 -4.359375 "/></g></g></g><g fill="#000000" fill-opacity="1"><g transform="translate(130.340821, 298.788732)"><g><path d="M 4.125 0.125 C 3.414062 0.125 2.773438 -0.0234375 2.203125 -0.328125 C 1.628906 -0.640625 1.179688 -1.0625 0.859375 -1.59375 C 0.535156 -2.132812 0.375 -2.742188 0.375 -3.421875 C 0.375 -4.085938 0.535156 -4.6875 0.859375 -5.21875 C 1.179688 -5.757812 1.628906 -6.179688 2.203125 -6.484375 C 2.773438 -6.796875 3.414062 -6.953125 4.125 -6.953125 C 4.832031 -6.953125 5.46875 -6.796875 6.03125 -6.484375 C 6.601562 -6.179688 7.050781 -5.757812 7.375 -5.21875 C 7.695312 -4.6875 7.859375 -4.085938 7.859375 -3.421875 C 7.859375 -2.742188 7.695312 -2.132812 7.375 -1.59375 C 7.050781 -1.0625 6.601562 -0.640625 6.03125 -0.328125 C 5.46875 -0.0234375 4.832031 0.125 4.125 0.125 Z M 4.125 -1.234375 C 4.53125 -1.234375 4.894531 -1.320312 5.21875 -1.5 C 5.539062 -1.6875 5.796875 -1.945312 5.984375 -2.28125 C 6.171875 -2.613281 6.265625 -2.992188 6.265625 -3.421875 C 6.265625 -3.835938 6.171875 -4.210938 5.984375 -4.546875 C 5.796875 -4.878906 5.539062 -5.140625 5.21875 -5.328125 C 4.894531 -5.515625 4.53125 -5.609375 4.125 -5.609375 C 3.71875 -5.609375 3.351562 -5.515625 3.03125 -5.328125 C 2.707031 -5.140625 2.453125 -4.878906 2.265625 -4.546875 C 2.078125 -4.210938 1.984375 -3.835938 1.984375 -3.421875 C 1.984375 -2.992188 2.078125 -2.613281 2.265625 -2.28125 C 2.453125 -1.945312 2.707031 -1.6875 3.03125 -1.5 C 3.351562 -1.320312 3.71875 -1.234375 4.125 -1.234375 Z M 4.125 -1.234375 "/></g></g></g><g fill="#000000" fill-opacity="1"><g transform="translate(139.810372, 298.788732)"><g><path d="M 3.765625 -6.84375 C 4.367188 -6.84375 4.894531 -6.738281 5.34375 -6.53125 C 5.789062 -6.332031 6.132812 -6.046875 6.375 -5.671875 C 6.613281 -5.304688 6.734375 -4.867188 6.734375 -4.359375 C 6.734375 -3.859375 6.613281 -3.421875 6.375 -3.046875 C 6.132812 -2.671875 5.789062 -2.382812 5.34375 -2.1875 C 4.894531 -1.988281 4.367188 -1.890625 3.765625 -1.890625 L 2.390625 -1.890625 L 2.390625 0 L 0.8125 0 L 0.8125 -6.84375 Z M 3.6875 -3.171875 C 4.15625 -3.171875 4.515625 -3.273438 4.765625 -3.484375 C 5.015625 -3.691406 5.140625 -3.984375 5.140625 -4.359375 C 5.140625 -4.742188 5.015625 -5.035156 4.765625 -5.234375 C 4.515625 -5.441406 4.15625 -5.546875 3.6875 -5.546875 L 2.390625 -5.546875 L 2.390625 -3.171875 Z M 3.6875 -3.171875 "/></g></g></g><g fill="#000000" fill-opacity="1"><g transform="translate(148.186623, 298.788732)"><g><path d="M 5.171875 0 L 3.84375 -1.90625 L 2.390625 -1.90625 L 2.390625 0 L 0.8125 0 L 0.8125 -6.84375 L 3.765625 -6.84375 C 4.367188 -6.84375 4.894531 -6.738281 5.34375 -6.53125 C 5.789062 -6.332031 6.132812 -6.046875 6.375 -5.671875 C 6.613281 -5.304688 6.734375 -4.867188 6.734375 -4.359375 C 6.734375 -3.847656 6.609375 -3.40625 6.359375 -3.03125 C 6.117188 -2.664062 5.773438 -2.390625 5.328125 -2.203125 L 6.859375 0 Z M 5.140625 -4.359375 C 5.140625 -4.742188 5.015625 -5.035156 4.765625 -5.234375 C 4.515625 -5.441406 4.15625 -5.546875 3.6875 -5.546875 L 2.390625 -5.546875 L 2.390625 -3.171875 L 3.6875 -3.171875 C 4.15625 -3.171875 4.515625 -3.273438 4.765625 -3.484375 C 5.015625 -3.691406 5.140625 -3.984375 5.140625 -4.359375 Z M 5.140625 -4.359375 "/></g></g></g><g fill="#000000" fill-opacity="1"><g transform="translate(156.592159, 298.788732)"><g><path d="M 6.109375 -1.265625 L 6.109375 0 L 0.8125 0 L 0.8125 -6.84375 L 5.984375 -6.84375 L 5.984375 -5.5625 L 2.390625 -5.5625 L 2.390625 -4.078125 L 5.5625 -4.078125 L 5.5625 -2.859375 L 2.390625 -2.859375 L 2.390625 -1.265625 Z M 6.109375 -1.265625 "/></g></g></g><g fill="#000000" fill-opacity="1"><g transform="translate(164.37295, 298.788732)"><g><path d="M 2.234375 -5.546875 L 0.046875 -5.546875 L 0.046875 -6.84375 L 6 -6.84375 L 6 -5.546875 L 3.8125 -5.546875 L 3.8125 0 L 2.234375 0 Z M 2.234375 -5.546875 "/></g></g></g><g fill="#000000" fill-opacity="1"><g transform="translate(171.636366, 298.788732)"><g><path d="M 6.109375 -1.265625 L 6.109375 0 L 0.8125 0 L 0.8125 -6.84375 L 5.984375 -6.84375 L 5.984375 -5.5625 L 2.390625 -5.5625 L 2.390625 -4.078125 L 5.5625 -4.078125 L 5.5625 -2.859375 L 2.390625 -2.859375 L 2.390625 -1.265625 Z M 3.828125 -8.796875 L 5.46875 -8.796875 L 3.703125 -7.390625 L 2.515625 -7.390625 Z M 3.828125 -8.796875 "/></g></g></g><g fill="#000000" fill-opacity="1"><g transform="translate(179.417158, 298.788732)"><g/></g></g><g fill="#000000" fill-opacity="1"><g transform="translate(183.410436, 298.788732)"><g><path d="M 6.109375 -1.265625 L 6.109375 0 L 0.8125 0 L 0.8125 -6.84375 L 5.984375 -6.84375 L 5.984375 -5.5625 L 2.390625 -5.5625 L 2.390625 -4.078125 L 5.5625 -4.078125 L 5.5625 -2.859375 L 2.390625 -2.859375 L 2.390625 -1.265625 Z M 6.109375 -1.265625 "/></g></g></g><g fill="#000000" fill-opacity="1"><g transform="translate(191.191228, 298.788732)"><g><path d="M 2.234375 -5.546875 L 0.046875 -5.546875 L 0.046875 -6.84375 L 6 -6.84375 L 6 -5.546875 L 3.8125 -5.546875 L 3.8125 0 L 2.234375 0 Z M 2.234375 -5.546875 "/></g></g></g><g fill="#000000" fill-opacity="1"><g transform="translate(198.454644, 298.788732)"><g/></g></g><g fill="#000000" fill-opacity="1"><g transform="translate(202.447922, 298.788732)"><g><path d="M 3.0625 0.125 C 2.519531 0.125 1.992188 0.0507812 1.484375 -0.09375 C 0.984375 -0.25 0.582031 -0.441406 0.28125 -0.671875 L 0.8125 -1.859375 C 1.101562 -1.648438 1.453125 -1.476562 1.859375 -1.34375 C 2.265625 -1.21875 2.664062 -1.15625 3.0625 -1.15625 C 3.507812 -1.15625 3.84375 -1.21875 4.0625 -1.34375 C 4.28125 -1.476562 4.390625 -1.660156 4.390625 -1.890625 C 4.390625 -2.046875 4.320312 -2.175781 4.1875 -2.28125 C 4.0625 -2.394531 3.898438 -2.484375 3.703125 -2.546875 C 3.503906 -2.609375 3.238281 -2.679688 2.90625 -2.765625 C 2.382812 -2.890625 1.957031 -3.015625 1.625 -3.140625 C 1.289062 -3.265625 1.003906 -3.460938 0.765625 -3.734375 C 0.523438 -4.003906 0.40625 -4.367188 0.40625 -4.828125 C 0.40625 -5.222656 0.515625 -5.582031 0.734375 -5.90625 C 0.953125 -6.226562 1.273438 -6.484375 1.703125 -6.671875 C 2.140625 -6.859375 2.671875 -6.953125 3.296875 -6.953125 C 3.734375 -6.953125 4.160156 -6.898438 4.578125 -6.796875 C 4.992188 -6.691406 5.359375 -6.539062 5.671875 -6.34375 L 5.171875 -5.140625 C 4.546875 -5.503906 3.914062 -5.6875 3.28125 -5.6875 C 2.84375 -5.6875 2.515625 -5.613281 2.296875 -5.46875 C 2.085938 -5.320312 1.984375 -5.132812 1.984375 -4.90625 C 1.984375 -4.664062 2.101562 -4.488281 2.34375 -4.375 C 2.59375 -4.257812 2.96875 -4.148438 3.46875 -4.046875 C 3.988281 -3.921875 4.414062 -3.796875 4.75 -3.671875 C 5.082031 -3.546875 5.363281 -3.347656 5.59375 -3.078125 C 5.832031 -2.816406 5.953125 -2.457031 5.953125 -2 C 5.953125 -1.613281 5.84375 -1.257812 5.625 -0.9375 C 5.40625 -0.613281 5.078125 -0.351562 4.640625 -0.15625 C 4.210938 0.03125 3.6875 0.125 3.0625 0.125 Z M 3.0625 0.125 "/></g></g></g><g fill="#000000" fill-opacity="1"><g transform="translate(209.906574, 298.788732)"><g><path d="M 6.109375 -1.265625 L 6.109375 0 L 0.8125 0 L 0.8125 -6.84375 L 5.984375 -6.84375 L 5.984375 -5.5625 L 2.390625 -5.5625 L 2.390625 -4.078125 L 5.5625 -4.078125 L 5.5625 -2.859375 L 2.390625 -2.859375 L 2.390625 -1.265625 Z M 6.109375 -1.265625 "/></g></g></g><g fill="#000000" fill-opacity="1"><g transform="translate(217.687366, 298.788732)"><g><path d="M 5.171875 0 L 3.84375 -1.90625 L 2.390625 -1.90625 L 2.390625 0 L 0.8125 0 L 0.8125 -6.84375 L 3.765625 -6.84375 C 4.367188 -6.84375 4.894531 -6.738281 5.34375 -6.53125 C 5.789062 -6.332031 6.132812 -6.046875 6.375 -5.671875 C 6.613281 -5.304688 6.734375 -4.867188 6.734375 -4.359375 C 6.734375 -3.847656 6.609375 -3.40625 6.359375 -3.03125 C 6.117188 -2.664062 5.773438 -2.390625 5.328125 -2.203125 L 6.859375 0 Z M 5.140625 -4.359375 C 5.140625 -4.742188 5.015625 -5.035156 4.765625 -5.234375 C 4.515625 -5.441406 4.15625 -5.546875 3.6875 -5.546875 L 2.390625 -5.546875 L 2.390625 -3.171875 L 3.6875 -3.171875 C 4.15625 -3.171875 4.515625 -3.273438 4.765625 -3.484375 C 5.015625 -3.691406 5.140625 -3.984375 5.140625 -4.359375 Z M 5.140625 -4.359375 "/></g></g></g><g fill="#000000" fill-opacity="1"><g transform="translate(226.092902, 298.788732)"><g><path d="M 7.390625 -6.84375 L 4.421875 0 L 2.859375 0 L -0.09375 -6.84375 L 1.625 -6.84375 L 3.703125 -1.953125 L 5.8125 -6.84375 Z M 7.390625 -6.84375 "/></g></g></g><g fill="#000000" fill-opacity="1"><g transform="translate(234.605806, 298.788732)"><g><path d="M 0.8125 -6.84375 L 2.390625 -6.84375 L 2.390625 0 L 0.8125 0 Z M 0.8125 -6.84375 "/></g></g></g><g fill="#000000" fill-opacity="1"><g transform="translate(239.038355, 298.788732)"><g><path d="M 4.078125 0.125 C 3.378906 0.125 2.75 -0.0234375 2.1875 -0.328125 C 1.625 -0.640625 1.179688 -1.0625 0.859375 -1.59375 C 0.535156 -2.132812 0.375 -2.742188 0.375 -3.421875 C 0.375 -4.097656 0.535156 -4.703125 0.859375 -5.234375 C 1.179688 -5.773438 1.625 -6.195312 2.1875 -6.5 C 2.75 -6.800781 3.382812 -6.953125 4.09375 -6.953125 C 4.6875 -6.953125 5.222656 -6.847656 5.703125 -6.640625 C 6.179688 -6.429688 6.582031 -6.132812 6.90625 -5.75 L 5.890625 -4.8125 C 5.429688 -5.34375 4.859375 -5.609375 4.171875 -5.609375 C 3.742188 -5.609375 3.363281 -5.515625 3.03125 -5.328125 C 2.707031 -5.140625 2.453125 -4.878906 2.265625 -4.546875 C 2.078125 -4.210938 1.984375 -3.835938 1.984375 -3.421875 C 1.984375 -2.992188 2.078125 -2.613281 2.265625 -2.28125 C 2.453125 -1.945312 2.707031 -1.6875 3.03125 -1.5 C 3.363281 -1.320312 3.742188 -1.234375 4.171875 -1.234375 C 4.859375 -1.234375 5.429688 -1.503906 5.890625 -2.046875 L 6.90625 -1.109375 C 6.582031 -0.710938 6.175781 -0.40625 5.6875 -0.1875 C 5.207031 0.0195312 4.671875 0.125 4.078125 0.125 Z M 4.078125 0.125 "/></g></g></g><g fill="#000000" fill-opacity="1"><g transform="translate(247.424367, 298.788732)"><g><path d="M 6.109375 -1.265625 L 6.109375 0 L 0.8125 0 L 0.8125 -6.84375 L 5.984375 -6.84375 L 5.984375 -5.5625 L 2.390625 -5.5625 L 2.390625 -4.078125 L 5.5625 -4.078125 L 5.5625 -2.859375 L 2.390625 -2.859375 L 2.390625 -1.265625 Z M 6.109375 -1.265625 "/></g></g></g><g fill="#000000" fill-opacity="1"><g transform="translate(255.205159, 298.788732)"><g><path d="M 3.0625 0.125 C 2.519531 0.125 1.992188 0.0507812 1.484375 -0.09375 C 0.984375 -0.25 0.582031 -0.441406 0.28125 -0.671875 L 0.8125 -1.859375 C 1.101562 -1.648438 1.453125 -1.476562 1.859375 -1.34375 C 2.265625 -1.21875 2.664062 -1.15625 3.0625 -1.15625 C 3.507812 -1.15625 3.84375 -1.21875 4.0625 -1.34375 C 4.28125 -1.476562 4.390625 -1.660156 4.390625 -1.890625 C 4.390625 -2.046875 4.320312 -2.175781 4.1875 -2.28125 C 4.0625 -2.394531 3.898438 -2.484375 3.703125 -2.546875 C 3.503906 -2.609375 3.238281 -2.679688 2.90625 -2.765625 C 2.382812 -2.890625 1.957031 -3.015625 1.625 -3.140625 C 1.289062 -3.265625 1.003906 -3.460938 0.765625 -3.734375 C 0.523438 -4.003906 0.40625 -4.367188 0.40625 -4.828125 C 0.40625 -5.222656 0.515625 -5.582031 0.734375 -5.90625 C 0.953125 -6.226562 1.273438 -6.484375 1.703125 -6.671875 C 2.140625 -6.859375 2.671875 -6.953125 3.296875 -6.953125 C 3.734375 -6.953125 4.160156 -6.898438 4.578125 -6.796875 C 4.992188 -6.691406 5.359375 -6.539062 5.671875 -6.34375 L 5.171875 -5.140625 C 4.546875 -5.503906 3.914062 -5.6875 3.28125 -5.6875 C 2.84375 -5.6875 2.515625 -5.613281 2.296875 -5.46875 C 2.085938 -5.320312 1.984375 -5.132812 1.984375 -4.90625 C 1.984375 -4.664062 2.101562 -4.488281 2.34375 -4.375 C 2.59375 -4.257812 2.96875 -4.148438 3.46875 -4.046875 C 3.988281 -3.921875 4.414062 -3.796875 4.75 -3.671875 C 5.082031 -3.546875 5.363281 -3.347656 5.59375 -3.078125 C 5.832031 -2.816406 5.953125 -2.457031 5.953125 -2 C 5.953125 -1.613281 5.84375 -1.257812 5.625 -0.9375 C 5.40625 -0.613281 5.078125 -0.351562 4.640625 -0.15625 C 4.210938 0.03125 3.6875 0.125 3.0625 0.125 Z M 3.0625 0.125 "/></g></g></g></svg>